G04 #@! TF.GenerationSoftware,KiCad,Pcbnew,5.1.4*
G04 #@! TF.CreationDate,2019-08-25T18:27:55-04:00*
G04 #@! TF.ProjectId,oven,6f76656e-2e6b-4696-9361-645f70636258,v02*
G04 #@! TF.SameCoordinates,Original*
G04 #@! TF.FileFunction,Copper,L2,Bot*
G04 #@! TF.FilePolarity,Positive*
%FSLAX46Y46*%
G04 Gerber Fmt 4.6, Leading zero omitted, Abs format (unit mm)*
G04 Created by KiCad (PCBNEW 5.1.4) date 2019-08-25 18:27:55*
%MOMM*%
%LPD*%
G04 APERTURE LIST*
%ADD10O,2.000000X1.600000*%
%ADD11R,2.000000X2.000000*%
%ADD12R,2.100000X2.100000*%
%ADD13C,2.100000*%
%ADD14C,0.685800*%
%ADD15C,0.304800*%
%ADD16C,0.152400*%
%ADD17C,0.254000*%
G04 APERTURE END LIST*
D10*
X96830000Y-80820000D03*
D11*
X96830000Y-78280000D03*
D10*
X96830000Y-83360000D03*
X96830000Y-85900000D03*
X96830000Y-88440000D03*
X96830000Y-90980000D03*
X96830000Y-93520000D03*
X96830000Y-96060000D03*
X119690000Y-96060000D03*
X119690000Y-93520000D03*
X119690000Y-90980000D03*
X119690000Y-88440000D03*
X119690000Y-85900000D03*
X119690000Y-83360000D03*
X119690000Y-80820000D03*
X119690000Y-78280000D03*
D12*
X130950000Y-88460000D03*
D13*
X130950000Y-85920000D03*
D12*
X130950000Y-72840000D03*
D13*
X130950000Y-75380000D03*
D12*
X130950000Y-79380000D03*
D13*
X130950000Y-81920000D03*
X130950000Y-95000000D03*
D12*
X130950000Y-92460000D03*
D13*
X130950000Y-101540000D03*
D12*
X130950000Y-99000000D03*
D14*
X116580000Y-79940000D03*
X108870000Y-82270000D03*
X108870000Y-81270000D03*
X108870000Y-83270000D03*
X114670000Y-82700000D03*
X111880000Y-78620000D03*
X112010000Y-80360000D03*
X108870000Y-84270000D03*
D15*
X130000000Y-100000000D02*
X130000000Y-98645200D01*
X130000000Y-93460000D02*
X130000000Y-91925762D01*
X129595200Y-99000000D02*
X130950000Y-99000000D01*
X121525200Y-99000000D02*
X129595200Y-99000000D01*
X119690000Y-97164800D02*
X121525200Y-99000000D01*
X119690000Y-96060000D02*
X119690000Y-97164800D01*
X132203201Y-93713201D02*
X130950000Y-92460000D01*
X132203201Y-96391999D02*
X132203201Y-93713201D01*
X130950000Y-97645200D02*
X132203201Y-96391999D01*
X130950000Y-99000000D02*
X130950000Y-97645200D01*
X132203201Y-89851999D02*
X132203201Y-80633201D01*
X132203201Y-80633201D02*
X130950000Y-79380000D01*
X130950000Y-91105200D02*
X132203201Y-89851999D01*
X130950000Y-92460000D02*
X130950000Y-91105200D01*
X132203201Y-74093201D02*
X130950000Y-72840000D01*
X132203201Y-76771999D02*
X132203201Y-74093201D01*
X130950000Y-78025200D02*
X132203201Y-76771999D01*
X130950000Y-79380000D02*
X130950000Y-78025200D01*
D16*
X108347010Y-81747010D02*
X104652990Y-81747010D01*
X108870000Y-82270000D02*
X108347010Y-81747010D01*
X100500000Y-85900000D02*
X96830000Y-85900000D01*
X104652990Y-81747010D02*
X100500000Y-85900000D01*
X109590000Y-84810990D02*
X100880990Y-93520000D01*
X97982400Y-93520000D02*
X96830000Y-93520000D01*
X109590000Y-81990000D02*
X109590000Y-84810990D01*
X100880990Y-93520000D02*
X97982400Y-93520000D01*
X108870000Y-81270000D02*
X109590000Y-81990000D01*
X108870000Y-83270000D02*
X106000000Y-83270000D01*
X100830000Y-88440000D02*
X96830000Y-88440000D01*
X106000000Y-83270000D02*
X100830000Y-88440000D01*
X114670000Y-81410000D02*
X114670000Y-82700000D01*
X111880000Y-78620000D02*
X114670000Y-81410000D01*
X112010000Y-80360000D02*
X103160000Y-80360000D01*
X100160000Y-83360000D02*
X96830000Y-83360000D01*
X103160000Y-80360000D02*
X100160000Y-83360000D01*
X108870000Y-84270000D02*
X107570000Y-84270000D01*
X100860000Y-90980000D02*
X96830000Y-90980000D01*
X107570000Y-84270000D02*
X100860000Y-90980000D01*
D17*
G36*
X137663893Y-67387670D02*
G01*
X138100498Y-67519489D01*
X138503185Y-67733600D01*
X138856612Y-68021848D01*
X139147327Y-68373261D01*
X139364242Y-68774439D01*
X139499106Y-69210113D01*
X139550001Y-69694353D01*
X139550000Y-104647721D01*
X139502330Y-105133894D01*
X139370512Y-105570497D01*
X139156399Y-105973186D01*
X138868150Y-106326613D01*
X138516739Y-106617327D01*
X138115564Y-106834240D01*
X137679886Y-106969106D01*
X137195664Y-107020000D01*
X95242279Y-107020000D01*
X94756106Y-106972330D01*
X94319503Y-106840512D01*
X93916814Y-106626399D01*
X93563387Y-106338150D01*
X93272673Y-105986739D01*
X93055760Y-105585564D01*
X92920894Y-105149886D01*
X92870000Y-104665664D01*
X92870000Y-104509117D01*
X93475000Y-104509117D01*
X93475000Y-104850883D01*
X93541675Y-105186081D01*
X93672463Y-105501831D01*
X93862337Y-105785998D01*
X94104002Y-106027663D01*
X94388169Y-106217537D01*
X94703919Y-106348325D01*
X95039117Y-106415000D01*
X95380883Y-106415000D01*
X95716081Y-106348325D01*
X96031831Y-106217537D01*
X96315998Y-106027663D01*
X96557663Y-105785998D01*
X96747537Y-105501831D01*
X96878325Y-105186081D01*
X96945000Y-104850883D01*
X96945000Y-104509117D01*
X135475000Y-104509117D01*
X135475000Y-104850883D01*
X135541675Y-105186081D01*
X135672463Y-105501831D01*
X135862337Y-105785998D01*
X136104002Y-106027663D01*
X136388169Y-106217537D01*
X136703919Y-106348325D01*
X137039117Y-106415000D01*
X137380883Y-106415000D01*
X137716081Y-106348325D01*
X138031831Y-106217537D01*
X138315998Y-106027663D01*
X138557663Y-105785998D01*
X138747537Y-105501831D01*
X138878325Y-105186081D01*
X138945000Y-104850883D01*
X138945000Y-104509117D01*
X138878325Y-104173919D01*
X138747537Y-103858169D01*
X138557663Y-103574002D01*
X138315998Y-103332337D01*
X138031831Y-103142463D01*
X137716081Y-103011675D01*
X137380883Y-102945000D01*
X137039117Y-102945000D01*
X136703919Y-103011675D01*
X136388169Y-103142463D01*
X136104002Y-103332337D01*
X135862337Y-103574002D01*
X135672463Y-103858169D01*
X135541675Y-104173919D01*
X135475000Y-104509117D01*
X96945000Y-104509117D01*
X96878325Y-104173919D01*
X96747537Y-103858169D01*
X96557663Y-103574002D01*
X96315998Y-103332337D01*
X96031831Y-103142463D01*
X95716081Y-103011675D01*
X95380883Y-102945000D01*
X95039117Y-102945000D01*
X94703919Y-103011675D01*
X94388169Y-103142463D01*
X94104002Y-103332337D01*
X93862337Y-103574002D01*
X93672463Y-103858169D01*
X93541675Y-104173919D01*
X93475000Y-104509117D01*
X92870000Y-104509117D01*
X92870000Y-77037000D01*
X95240140Y-77037000D01*
X95204188Y-77155518D01*
X95191928Y-77280000D01*
X95191928Y-79280000D01*
X95204188Y-79404482D01*
X95240498Y-79524180D01*
X95299463Y-79634494D01*
X95378815Y-79731185D01*
X95475506Y-79810537D01*
X95563476Y-79857559D01*
X95431068Y-80018899D01*
X95297818Y-80268192D01*
X95215764Y-80538691D01*
X95188057Y-80820000D01*
X95215764Y-81101309D01*
X95297818Y-81371808D01*
X95431068Y-81621101D01*
X95610392Y-81839608D01*
X95828899Y-82018932D01*
X95961858Y-82090000D01*
X95828899Y-82161068D01*
X95610392Y-82340392D01*
X95431068Y-82558899D01*
X95297818Y-82808192D01*
X95215764Y-83078691D01*
X95188057Y-83360000D01*
X95215764Y-83641309D01*
X95297818Y-83911808D01*
X95431068Y-84161101D01*
X95610392Y-84379608D01*
X95828899Y-84558932D01*
X95961858Y-84630000D01*
X95828899Y-84701068D01*
X95610392Y-84880392D01*
X95431068Y-85098899D01*
X95297818Y-85348192D01*
X95215764Y-85618691D01*
X95188057Y-85900000D01*
X95215764Y-86181309D01*
X95297818Y-86451808D01*
X95431068Y-86701101D01*
X95610392Y-86919608D01*
X95828899Y-87098932D01*
X95961858Y-87170000D01*
X95828899Y-87241068D01*
X95610392Y-87420392D01*
X95431068Y-87638899D01*
X95297818Y-87888192D01*
X95215764Y-88158691D01*
X95188057Y-88440000D01*
X95215764Y-88721309D01*
X95297818Y-88991808D01*
X95431068Y-89241101D01*
X95610392Y-89459608D01*
X95828899Y-89638932D01*
X95961858Y-89710000D01*
X95828899Y-89781068D01*
X95610392Y-89960392D01*
X95431068Y-90178899D01*
X95297818Y-90428192D01*
X95215764Y-90698691D01*
X95188057Y-90980000D01*
X95215764Y-91261309D01*
X95297818Y-91531808D01*
X95431068Y-91781101D01*
X95610392Y-91999608D01*
X95828899Y-92178932D01*
X95961858Y-92250000D01*
X95828899Y-92321068D01*
X95610392Y-92500392D01*
X95431068Y-92718899D01*
X95297818Y-92968192D01*
X95215764Y-93238691D01*
X95188057Y-93520000D01*
X95215764Y-93801309D01*
X95297818Y-94071808D01*
X95431068Y-94321101D01*
X95610392Y-94539608D01*
X95828899Y-94718932D01*
X95961858Y-94790000D01*
X95828899Y-94861068D01*
X95610392Y-95040392D01*
X95431068Y-95258899D01*
X95297818Y-95508192D01*
X95215764Y-95778691D01*
X95188057Y-96060000D01*
X95215764Y-96341309D01*
X95297818Y-96611808D01*
X95431068Y-96861101D01*
X95610392Y-97079608D01*
X95828899Y-97258932D01*
X96078192Y-97392182D01*
X96348691Y-97474236D01*
X96559508Y-97495000D01*
X97100492Y-97495000D01*
X97311309Y-97474236D01*
X97581808Y-97392182D01*
X97831101Y-97258932D01*
X98049608Y-97079608D01*
X98228932Y-96861101D01*
X98362182Y-96611808D01*
X98444236Y-96341309D01*
X98471943Y-96060000D01*
X118048057Y-96060000D01*
X118075764Y-96341309D01*
X118157818Y-96611808D01*
X118291068Y-96861101D01*
X118470392Y-97079608D01*
X118688899Y-97258932D01*
X118935750Y-97390877D01*
X118959018Y-97467582D01*
X118975713Y-97498815D01*
X119032135Y-97604372D01*
X119130532Y-97724269D01*
X119160573Y-97748923D01*
X120941081Y-99529433D01*
X120965731Y-99559469D01*
X120995767Y-99584119D01*
X120995770Y-99584122D01*
X121085627Y-99657866D01*
X121222417Y-99730982D01*
X121370843Y-99776006D01*
X121486527Y-99787400D01*
X121486535Y-99787400D01*
X121525200Y-99791208D01*
X121563865Y-99787400D01*
X129212600Y-99787400D01*
X129212600Y-100038672D01*
X129223994Y-100154356D01*
X129269018Y-100302782D01*
X129342134Y-100439571D01*
X129440531Y-100559469D01*
X129529726Y-100632670D01*
X129456772Y-100741853D01*
X129329754Y-101048504D01*
X129265000Y-101374042D01*
X129265000Y-101705958D01*
X129329754Y-102031496D01*
X129456772Y-102338147D01*
X129641175Y-102614125D01*
X129875875Y-102848825D01*
X130151853Y-103033228D01*
X130458504Y-103160246D01*
X130784042Y-103225000D01*
X131115958Y-103225000D01*
X131441496Y-103160246D01*
X131748147Y-103033228D01*
X132024125Y-102848825D01*
X132258825Y-102614125D01*
X132443228Y-102338147D01*
X132570246Y-102031496D01*
X132635000Y-101705958D01*
X132635000Y-101374042D01*
X132570246Y-101048504D01*
X132443228Y-100741853D01*
X132340454Y-100588042D01*
X132354494Y-100580537D01*
X132451185Y-100501185D01*
X132530537Y-100404494D01*
X132589502Y-100294180D01*
X132625812Y-100174482D01*
X132638072Y-100050000D01*
X132638072Y-97950000D01*
X132625812Y-97825518D01*
X132589502Y-97705820D01*
X132530537Y-97595506D01*
X132451185Y-97498815D01*
X132354494Y-97419463D01*
X132312001Y-97396750D01*
X132732630Y-96976121D01*
X132762670Y-96951468D01*
X132836080Y-96862018D01*
X132861067Y-96831572D01*
X132934183Y-96694782D01*
X132956793Y-96620246D01*
X132979207Y-96546356D01*
X132990601Y-96430672D01*
X132990601Y-96430662D01*
X132994409Y-96391999D01*
X132990601Y-96353336D01*
X132990601Y-93751864D01*
X132994409Y-93713201D01*
X132990601Y-93674538D01*
X132990601Y-93674528D01*
X132979207Y-93558844D01*
X132934183Y-93410418D01*
X132917793Y-93379754D01*
X132861067Y-93273628D01*
X132787322Y-93183771D01*
X132762670Y-93153732D01*
X132732629Y-93129078D01*
X132638072Y-93034521D01*
X132638072Y-91410000D01*
X132625812Y-91285518D01*
X132589502Y-91165820D01*
X132530537Y-91055506D01*
X132451185Y-90958815D01*
X132354494Y-90879463D01*
X132312001Y-90856750D01*
X132732630Y-90436121D01*
X132762670Y-90411468D01*
X132837935Y-90319758D01*
X132861067Y-90291572D01*
X132934183Y-90154782D01*
X132968838Y-90040537D01*
X132979207Y-90006356D01*
X132990601Y-89890672D01*
X132990601Y-89890662D01*
X132994409Y-89851999D01*
X132990601Y-89813336D01*
X132990601Y-80671864D01*
X132994409Y-80633201D01*
X132990601Y-80594538D01*
X132990601Y-80594528D01*
X132979207Y-80478844D01*
X132934183Y-80330418D01*
X132917793Y-80299754D01*
X132861067Y-80193628D01*
X132787322Y-80103771D01*
X132762670Y-80073732D01*
X132732629Y-80049078D01*
X132638072Y-79954521D01*
X132638072Y-78330000D01*
X132625812Y-78205518D01*
X132589502Y-78085820D01*
X132530537Y-77975506D01*
X132451185Y-77878815D01*
X132354494Y-77799463D01*
X132312001Y-77776750D01*
X132732630Y-77356121D01*
X132762670Y-77331468D01*
X132830191Y-77249194D01*
X132861067Y-77211572D01*
X132934183Y-77074782D01*
X132956927Y-76999803D01*
X132979207Y-76926356D01*
X132990601Y-76810672D01*
X132990601Y-76810662D01*
X132994409Y-76771999D01*
X132990601Y-76733336D01*
X132990601Y-74131864D01*
X132994409Y-74093201D01*
X132990601Y-74054538D01*
X132990601Y-74054528D01*
X132979207Y-73938844D01*
X132934183Y-73790418D01*
X132917793Y-73759754D01*
X132861067Y-73653628D01*
X132787322Y-73563771D01*
X132762670Y-73533732D01*
X132732629Y-73509078D01*
X132638072Y-73414521D01*
X132638072Y-71790000D01*
X132625812Y-71665518D01*
X132589502Y-71545820D01*
X132530537Y-71435506D01*
X132451185Y-71338815D01*
X132354494Y-71259463D01*
X132244180Y-71200498D01*
X132124482Y-71164188D01*
X132000000Y-71151928D01*
X129900000Y-71151928D01*
X129775518Y-71164188D01*
X129655820Y-71200498D01*
X129545506Y-71259463D01*
X129448815Y-71338815D01*
X129369463Y-71435506D01*
X129310498Y-71545820D01*
X129274188Y-71665518D01*
X129261928Y-71790000D01*
X129261928Y-73890000D01*
X129274188Y-74014482D01*
X129310498Y-74134180D01*
X129369463Y-74244494D01*
X129448815Y-74341185D01*
X129545506Y-74420537D01*
X129559546Y-74428042D01*
X129456772Y-74581853D01*
X129329754Y-74888504D01*
X129265000Y-75214042D01*
X129265000Y-75545958D01*
X129329754Y-75871496D01*
X129456772Y-76178147D01*
X129641175Y-76454125D01*
X129875875Y-76688825D01*
X130151853Y-76873228D01*
X130458504Y-77000246D01*
X130784042Y-77065000D01*
X130796650Y-77065000D01*
X130420573Y-77441077D01*
X130390532Y-77465731D01*
X130310535Y-77563208D01*
X130292135Y-77585628D01*
X130235316Y-77691928D01*
X129900000Y-77691928D01*
X129775518Y-77704188D01*
X129655820Y-77740498D01*
X129545506Y-77799463D01*
X129448815Y-77878815D01*
X129369463Y-77975506D01*
X129310498Y-78085820D01*
X129274188Y-78205518D01*
X129261928Y-78330000D01*
X129261928Y-80430000D01*
X129274188Y-80554482D01*
X129310498Y-80674180D01*
X129369463Y-80784494D01*
X129448815Y-80881185D01*
X129545506Y-80960537D01*
X129559546Y-80968042D01*
X129456772Y-81121853D01*
X129329754Y-81428504D01*
X129265000Y-81754042D01*
X129265000Y-82085958D01*
X129329754Y-82411496D01*
X129456772Y-82718147D01*
X129641175Y-82994125D01*
X129875875Y-83228825D01*
X130151853Y-83413228D01*
X130458504Y-83540246D01*
X130784042Y-83605000D01*
X131115958Y-83605000D01*
X131415802Y-83545357D01*
X131415802Y-84294643D01*
X131115958Y-84235000D01*
X130784042Y-84235000D01*
X130458504Y-84299754D01*
X130151853Y-84426772D01*
X129875875Y-84611175D01*
X129641175Y-84845875D01*
X129456772Y-85121853D01*
X129329754Y-85428504D01*
X129265000Y-85754042D01*
X129265000Y-86085958D01*
X129329754Y-86411496D01*
X129456772Y-86718147D01*
X129559546Y-86871958D01*
X129545506Y-86879463D01*
X129448815Y-86958815D01*
X129369463Y-87055506D01*
X129310498Y-87165820D01*
X129274188Y-87285518D01*
X129261928Y-87410000D01*
X129261928Y-89510000D01*
X129274188Y-89634482D01*
X129310498Y-89754180D01*
X129369463Y-89864494D01*
X129448815Y-89961185D01*
X129545506Y-90040537D01*
X129655820Y-90099502D01*
X129775518Y-90135812D01*
X129900000Y-90148072D01*
X130793578Y-90148072D01*
X130420573Y-90521077D01*
X130390532Y-90545731D01*
X130310535Y-90643208D01*
X130292135Y-90665628D01*
X130235316Y-90771928D01*
X129900000Y-90771928D01*
X129775518Y-90784188D01*
X129655820Y-90820498D01*
X129545506Y-90879463D01*
X129448815Y-90958815D01*
X129369463Y-91055506D01*
X129310498Y-91165820D01*
X129274188Y-91285518D01*
X129261928Y-91410000D01*
X129261928Y-91646355D01*
X129223995Y-91771405D01*
X129212601Y-91887089D01*
X129212600Y-93498672D01*
X129223994Y-93614356D01*
X129269018Y-93762782D01*
X129342134Y-93899571D01*
X129440531Y-94019469D01*
X129529726Y-94092670D01*
X129456772Y-94201853D01*
X129329754Y-94508504D01*
X129265000Y-94834042D01*
X129265000Y-95165958D01*
X129329754Y-95491496D01*
X129456772Y-95798147D01*
X129641175Y-96074125D01*
X129875875Y-96308825D01*
X130151853Y-96493228D01*
X130458504Y-96620246D01*
X130784042Y-96685000D01*
X130796650Y-96685000D01*
X130420573Y-97061077D01*
X130390532Y-97085731D01*
X130310535Y-97183208D01*
X130292135Y-97205628D01*
X130235316Y-97311928D01*
X129900000Y-97311928D01*
X129775518Y-97324188D01*
X129655820Y-97360498D01*
X129545506Y-97419463D01*
X129448815Y-97498815D01*
X129369463Y-97595506D01*
X129310498Y-97705820D01*
X129274188Y-97825518D01*
X129261928Y-97950000D01*
X129261928Y-98212600D01*
X121851352Y-98212600D01*
X120804565Y-97165814D01*
X120909608Y-97079608D01*
X121088932Y-96861101D01*
X121222182Y-96611808D01*
X121304236Y-96341309D01*
X121331943Y-96060000D01*
X121304236Y-95778691D01*
X121222182Y-95508192D01*
X121088932Y-95258899D01*
X120909608Y-95040392D01*
X120691101Y-94861068D01*
X120561655Y-94791878D01*
X120579227Y-94784430D01*
X120812662Y-94625673D01*
X121010639Y-94424425D01*
X121165551Y-94188421D01*
X121271444Y-93926730D01*
X121281904Y-93869039D01*
X121159915Y-93647000D01*
X119817000Y-93647000D01*
X119817000Y-93667000D01*
X119563000Y-93667000D01*
X119563000Y-93647000D01*
X118220085Y-93647000D01*
X118098096Y-93869039D01*
X118108556Y-93926730D01*
X118214449Y-94188421D01*
X118369361Y-94424425D01*
X118567338Y-94625673D01*
X118800773Y-94784430D01*
X118818345Y-94791878D01*
X118688899Y-94861068D01*
X118470392Y-95040392D01*
X118291068Y-95258899D01*
X118157818Y-95508192D01*
X118075764Y-95778691D01*
X118048057Y-96060000D01*
X98471943Y-96060000D01*
X98444236Y-95778691D01*
X98362182Y-95508192D01*
X98228932Y-95258899D01*
X98049608Y-95040392D01*
X97831101Y-94861068D01*
X97698142Y-94790000D01*
X97831101Y-94718932D01*
X98049608Y-94539608D01*
X98228932Y-94321101D01*
X98276985Y-94231200D01*
X100846064Y-94231200D01*
X100880990Y-94234640D01*
X100915916Y-94231200D01*
X100915926Y-94231200D01*
X101020410Y-94220909D01*
X101154471Y-94180242D01*
X101278023Y-94114202D01*
X101386317Y-94025327D01*
X101408592Y-93998185D01*
X110068191Y-85338587D01*
X110095327Y-85316317D01*
X110184202Y-85208023D01*
X110250242Y-85084471D01*
X110290909Y-84950410D01*
X110301200Y-84845926D01*
X110301200Y-84845917D01*
X110304640Y-84810991D01*
X110301200Y-84776065D01*
X110301200Y-82024928D01*
X110304640Y-81990000D01*
X110301200Y-81955071D01*
X110301200Y-81955064D01*
X110290909Y-81850580D01*
X110277699Y-81807032D01*
X110250242Y-81716518D01*
X110184202Y-81592967D01*
X110117597Y-81511809D01*
X110117593Y-81511805D01*
X110095326Y-81484673D01*
X110068195Y-81462407D01*
X109847900Y-81242112D01*
X109847900Y-81173685D01*
X109827515Y-81071200D01*
X111338240Y-81071200D01*
X111386625Y-81119585D01*
X111546790Y-81226604D01*
X111724757Y-81300320D01*
X111913685Y-81337900D01*
X112106315Y-81337900D01*
X112295243Y-81300320D01*
X112473210Y-81226604D01*
X112633375Y-81119585D01*
X112769585Y-80983375D01*
X112876604Y-80823210D01*
X112935422Y-80681210D01*
X113958800Y-81704588D01*
X113958800Y-82028240D01*
X113910415Y-82076625D01*
X113803396Y-82236790D01*
X113729680Y-82414757D01*
X113692100Y-82603685D01*
X113692100Y-82796315D01*
X113729680Y-82985243D01*
X113803396Y-83163210D01*
X113910415Y-83323375D01*
X114046625Y-83459585D01*
X114206790Y-83566604D01*
X114384757Y-83640320D01*
X114573685Y-83677900D01*
X114766315Y-83677900D01*
X114955243Y-83640320D01*
X115133210Y-83566604D01*
X115293375Y-83459585D01*
X115429585Y-83323375D01*
X115536604Y-83163210D01*
X115610320Y-82985243D01*
X115647900Y-82796315D01*
X115647900Y-82603685D01*
X115610320Y-82414757D01*
X115536604Y-82236790D01*
X115429585Y-82076625D01*
X115381200Y-82028240D01*
X115381200Y-81444928D01*
X115384640Y-81410000D01*
X115381200Y-81375071D01*
X115381200Y-81375064D01*
X115370909Y-81270580D01*
X115330242Y-81136519D01*
X115264202Y-81012967D01*
X115250703Y-80996519D01*
X115197597Y-80931809D01*
X115197593Y-80931805D01*
X115175326Y-80904673D01*
X115148195Y-80882407D01*
X112857900Y-78592113D01*
X112857900Y-78523685D01*
X112820320Y-78334757D01*
X112746604Y-78156790D01*
X112639585Y-77996625D01*
X112503375Y-77860415D01*
X112343210Y-77753396D01*
X112165243Y-77679680D01*
X111976315Y-77642100D01*
X111783685Y-77642100D01*
X111594757Y-77679680D01*
X111416790Y-77753396D01*
X111256625Y-77860415D01*
X111120415Y-77996625D01*
X111013396Y-78156790D01*
X110939680Y-78334757D01*
X110902100Y-78523685D01*
X110902100Y-78716315D01*
X110939680Y-78905243D01*
X111013396Y-79083210D01*
X111120415Y-79243375D01*
X111256625Y-79379585D01*
X111416790Y-79486604D01*
X111503316Y-79522444D01*
X111386625Y-79600415D01*
X111338240Y-79648800D01*
X103194928Y-79648800D01*
X103160000Y-79645360D01*
X103125071Y-79648800D01*
X103125064Y-79648800D01*
X103020580Y-79659091D01*
X102886518Y-79699758D01*
X102762967Y-79765798D01*
X102681809Y-79832402D01*
X102681804Y-79832407D01*
X102654673Y-79854673D01*
X102632407Y-79881804D01*
X99865413Y-82648800D01*
X98276985Y-82648800D01*
X98228932Y-82558899D01*
X98049608Y-82340392D01*
X97831101Y-82161068D01*
X97698142Y-82090000D01*
X97831101Y-82018932D01*
X98049608Y-81839608D01*
X98228932Y-81621101D01*
X98362182Y-81371808D01*
X98444236Y-81101309D01*
X98471943Y-80820000D01*
X98444236Y-80538691D01*
X98362182Y-80268192D01*
X98228932Y-80018899D01*
X98096524Y-79857559D01*
X98184494Y-79810537D01*
X98281185Y-79731185D01*
X98360537Y-79634494D01*
X98419502Y-79524180D01*
X98455812Y-79404482D01*
X98468072Y-79280000D01*
X98468072Y-77280000D01*
X98455812Y-77155518D01*
X98419860Y-77037000D01*
X118771344Y-77037000D01*
X118688899Y-77081068D01*
X118470392Y-77260392D01*
X118291068Y-77478899D01*
X118157818Y-77728192D01*
X118075764Y-77998691D01*
X118048057Y-78280000D01*
X118075764Y-78561309D01*
X118157818Y-78831808D01*
X118291068Y-79081101D01*
X118470392Y-79299608D01*
X118688899Y-79478932D01*
X118821858Y-79550000D01*
X118688899Y-79621068D01*
X118470392Y-79800392D01*
X118291068Y-80018899D01*
X118157818Y-80268192D01*
X118075764Y-80538691D01*
X118048057Y-80820000D01*
X118075764Y-81101309D01*
X118157818Y-81371808D01*
X118291068Y-81621101D01*
X118470392Y-81839608D01*
X118688899Y-82018932D01*
X118821858Y-82090000D01*
X118688899Y-82161068D01*
X118470392Y-82340392D01*
X118291068Y-82558899D01*
X118157818Y-82808192D01*
X118075764Y-83078691D01*
X118048057Y-83360000D01*
X118075764Y-83641309D01*
X118157818Y-83911808D01*
X118291068Y-84161101D01*
X118470392Y-84379608D01*
X118688899Y-84558932D01*
X118821858Y-84630000D01*
X118688899Y-84701068D01*
X118470392Y-84880392D01*
X118291068Y-85098899D01*
X118157818Y-85348192D01*
X118075764Y-85618691D01*
X118048057Y-85900000D01*
X118075764Y-86181309D01*
X118157818Y-86451808D01*
X118291068Y-86701101D01*
X118470392Y-86919608D01*
X118688899Y-87098932D01*
X118821858Y-87170000D01*
X118688899Y-87241068D01*
X118470392Y-87420392D01*
X118291068Y-87638899D01*
X118157818Y-87888192D01*
X118075764Y-88158691D01*
X118048057Y-88440000D01*
X118075764Y-88721309D01*
X118157818Y-88991808D01*
X118291068Y-89241101D01*
X118470392Y-89459608D01*
X118688899Y-89638932D01*
X118821858Y-89710000D01*
X118688899Y-89781068D01*
X118470392Y-89960392D01*
X118291068Y-90178899D01*
X118157818Y-90428192D01*
X118075764Y-90698691D01*
X118048057Y-90980000D01*
X118075764Y-91261309D01*
X118157818Y-91531808D01*
X118291068Y-91781101D01*
X118470392Y-91999608D01*
X118688899Y-92178932D01*
X118818345Y-92248122D01*
X118800773Y-92255570D01*
X118567338Y-92414327D01*
X118369361Y-92615575D01*
X118214449Y-92851579D01*
X118108556Y-93113270D01*
X118098096Y-93170961D01*
X118220085Y-93393000D01*
X119563000Y-93393000D01*
X119563000Y-93373000D01*
X119817000Y-93373000D01*
X119817000Y-93393000D01*
X121159915Y-93393000D01*
X121281904Y-93170961D01*
X121271444Y-93113270D01*
X121165551Y-92851579D01*
X121010639Y-92615575D01*
X120812662Y-92414327D01*
X120579227Y-92255570D01*
X120561655Y-92248122D01*
X120691101Y-92178932D01*
X120909608Y-91999608D01*
X121088932Y-91781101D01*
X121222182Y-91531808D01*
X121304236Y-91261309D01*
X121331943Y-90980000D01*
X121304236Y-90698691D01*
X121222182Y-90428192D01*
X121088932Y-90178899D01*
X120909608Y-89960392D01*
X120691101Y-89781068D01*
X120558142Y-89710000D01*
X120691101Y-89638932D01*
X120909608Y-89459608D01*
X121088932Y-89241101D01*
X121222182Y-88991808D01*
X121304236Y-88721309D01*
X121331943Y-88440000D01*
X121304236Y-88158691D01*
X121222182Y-87888192D01*
X121088932Y-87638899D01*
X120909608Y-87420392D01*
X120691101Y-87241068D01*
X120558142Y-87170000D01*
X120691101Y-87098932D01*
X120909608Y-86919608D01*
X121088932Y-86701101D01*
X121222182Y-86451808D01*
X121304236Y-86181309D01*
X121331943Y-85900000D01*
X121304236Y-85618691D01*
X121222182Y-85348192D01*
X121088932Y-85098899D01*
X120909608Y-84880392D01*
X120691101Y-84701068D01*
X120558142Y-84630000D01*
X120691101Y-84558932D01*
X120909608Y-84379608D01*
X121088932Y-84161101D01*
X121222182Y-83911808D01*
X121304236Y-83641309D01*
X121331943Y-83360000D01*
X121304236Y-83078691D01*
X121222182Y-82808192D01*
X121088932Y-82558899D01*
X120909608Y-82340392D01*
X120691101Y-82161068D01*
X120558142Y-82090000D01*
X120691101Y-82018932D01*
X120909608Y-81839608D01*
X121088932Y-81621101D01*
X121222182Y-81371808D01*
X121304236Y-81101309D01*
X121331943Y-80820000D01*
X121304236Y-80538691D01*
X121222182Y-80268192D01*
X121088932Y-80018899D01*
X120909608Y-79800392D01*
X120691101Y-79621068D01*
X120558142Y-79550000D01*
X120691101Y-79478932D01*
X120909608Y-79299608D01*
X121088932Y-79081101D01*
X121222182Y-78831808D01*
X121304236Y-78561309D01*
X121331943Y-78280000D01*
X121304236Y-77998691D01*
X121222182Y-77728192D01*
X121088932Y-77478899D01*
X120909608Y-77260392D01*
X120691101Y-77081068D01*
X120608656Y-77037000D01*
X121950000Y-77037000D01*
X121974776Y-77034560D01*
X121998601Y-77027333D01*
X122020557Y-77015597D01*
X122039803Y-76999803D01*
X122055597Y-76980557D01*
X122067333Y-76958601D01*
X122074560Y-76934776D01*
X122077000Y-76910000D01*
X122077000Y-69509117D01*
X135475000Y-69509117D01*
X135475000Y-69850883D01*
X135541675Y-70186081D01*
X135672463Y-70501831D01*
X135862337Y-70785998D01*
X136104002Y-71027663D01*
X136388169Y-71217537D01*
X136703919Y-71348325D01*
X137039117Y-71415000D01*
X137380883Y-71415000D01*
X137716081Y-71348325D01*
X138031831Y-71217537D01*
X138315998Y-71027663D01*
X138557663Y-70785998D01*
X138747537Y-70501831D01*
X138878325Y-70186081D01*
X138945000Y-69850883D01*
X138945000Y-69509117D01*
X138878325Y-69173919D01*
X138747537Y-68858169D01*
X138557663Y-68574002D01*
X138315998Y-68332337D01*
X138031831Y-68142463D01*
X137716081Y-68011675D01*
X137380883Y-67945000D01*
X137039117Y-67945000D01*
X136703919Y-68011675D01*
X136388169Y-68142463D01*
X136104002Y-68332337D01*
X135862337Y-68574002D01*
X135672463Y-68858169D01*
X135541675Y-69173919D01*
X135475000Y-69509117D01*
X122077000Y-69509117D01*
X122077000Y-67340000D01*
X137177721Y-67340000D01*
X137663893Y-67387670D01*
X137663893Y-67387670D01*
G37*
X137663893Y-67387670D02*
X138100498Y-67519489D01*
X138503185Y-67733600D01*
X138856612Y-68021848D01*
X139147327Y-68373261D01*
X139364242Y-68774439D01*
X139499106Y-69210113D01*
X139550001Y-69694353D01*
X139550000Y-104647721D01*
X139502330Y-105133894D01*
X139370512Y-105570497D01*
X139156399Y-105973186D01*
X138868150Y-106326613D01*
X138516739Y-106617327D01*
X138115564Y-106834240D01*
X137679886Y-106969106D01*
X137195664Y-107020000D01*
X95242279Y-107020000D01*
X94756106Y-106972330D01*
X94319503Y-106840512D01*
X93916814Y-106626399D01*
X93563387Y-106338150D01*
X93272673Y-105986739D01*
X93055760Y-105585564D01*
X92920894Y-105149886D01*
X92870000Y-104665664D01*
X92870000Y-104509117D01*
X93475000Y-104509117D01*
X93475000Y-104850883D01*
X93541675Y-105186081D01*
X93672463Y-105501831D01*
X93862337Y-105785998D01*
X94104002Y-106027663D01*
X94388169Y-106217537D01*
X94703919Y-106348325D01*
X95039117Y-106415000D01*
X95380883Y-106415000D01*
X95716081Y-106348325D01*
X96031831Y-106217537D01*
X96315998Y-106027663D01*
X96557663Y-105785998D01*
X96747537Y-105501831D01*
X96878325Y-105186081D01*
X96945000Y-104850883D01*
X96945000Y-104509117D01*
X135475000Y-104509117D01*
X135475000Y-104850883D01*
X135541675Y-105186081D01*
X135672463Y-105501831D01*
X135862337Y-105785998D01*
X136104002Y-106027663D01*
X136388169Y-106217537D01*
X136703919Y-106348325D01*
X137039117Y-106415000D01*
X137380883Y-106415000D01*
X137716081Y-106348325D01*
X138031831Y-106217537D01*
X138315998Y-106027663D01*
X138557663Y-105785998D01*
X138747537Y-105501831D01*
X138878325Y-105186081D01*
X138945000Y-104850883D01*
X138945000Y-104509117D01*
X138878325Y-104173919D01*
X138747537Y-103858169D01*
X138557663Y-103574002D01*
X138315998Y-103332337D01*
X138031831Y-103142463D01*
X137716081Y-103011675D01*
X137380883Y-102945000D01*
X137039117Y-102945000D01*
X136703919Y-103011675D01*
X136388169Y-103142463D01*
X136104002Y-103332337D01*
X135862337Y-103574002D01*
X135672463Y-103858169D01*
X135541675Y-104173919D01*
X135475000Y-104509117D01*
X96945000Y-104509117D01*
X96878325Y-104173919D01*
X96747537Y-103858169D01*
X96557663Y-103574002D01*
X96315998Y-103332337D01*
X96031831Y-103142463D01*
X95716081Y-103011675D01*
X95380883Y-102945000D01*
X95039117Y-102945000D01*
X94703919Y-103011675D01*
X94388169Y-103142463D01*
X94104002Y-103332337D01*
X93862337Y-103574002D01*
X93672463Y-103858169D01*
X93541675Y-104173919D01*
X93475000Y-104509117D01*
X92870000Y-104509117D01*
X92870000Y-77037000D01*
X95240140Y-77037000D01*
X95204188Y-77155518D01*
X95191928Y-77280000D01*
X95191928Y-79280000D01*
X95204188Y-79404482D01*
X95240498Y-79524180D01*
X95299463Y-79634494D01*
X95378815Y-79731185D01*
X95475506Y-79810537D01*
X95563476Y-79857559D01*
X95431068Y-80018899D01*
X95297818Y-80268192D01*
X95215764Y-80538691D01*
X95188057Y-80820000D01*
X95215764Y-81101309D01*
X95297818Y-81371808D01*
X95431068Y-81621101D01*
X95610392Y-81839608D01*
X95828899Y-82018932D01*
X95961858Y-82090000D01*
X95828899Y-82161068D01*
X95610392Y-82340392D01*
X95431068Y-82558899D01*
X95297818Y-82808192D01*
X95215764Y-83078691D01*
X95188057Y-83360000D01*
X95215764Y-83641309D01*
X95297818Y-83911808D01*
X95431068Y-84161101D01*
X95610392Y-84379608D01*
X95828899Y-84558932D01*
X95961858Y-84630000D01*
X95828899Y-84701068D01*
X95610392Y-84880392D01*
X95431068Y-85098899D01*
X95297818Y-85348192D01*
X95215764Y-85618691D01*
X95188057Y-85900000D01*
X95215764Y-86181309D01*
X95297818Y-86451808D01*
X95431068Y-86701101D01*
X95610392Y-86919608D01*
X95828899Y-87098932D01*
X95961858Y-87170000D01*
X95828899Y-87241068D01*
X95610392Y-87420392D01*
X95431068Y-87638899D01*
X95297818Y-87888192D01*
X95215764Y-88158691D01*
X95188057Y-88440000D01*
X95215764Y-88721309D01*
X95297818Y-88991808D01*
X95431068Y-89241101D01*
X95610392Y-89459608D01*
X95828899Y-89638932D01*
X95961858Y-89710000D01*
X95828899Y-89781068D01*
X95610392Y-89960392D01*
X95431068Y-90178899D01*
X95297818Y-90428192D01*
X95215764Y-90698691D01*
X95188057Y-90980000D01*
X95215764Y-91261309D01*
X95297818Y-91531808D01*
X95431068Y-91781101D01*
X95610392Y-91999608D01*
X95828899Y-92178932D01*
X95961858Y-92250000D01*
X95828899Y-92321068D01*
X95610392Y-92500392D01*
X95431068Y-92718899D01*
X95297818Y-92968192D01*
X95215764Y-93238691D01*
X95188057Y-93520000D01*
X95215764Y-93801309D01*
X95297818Y-94071808D01*
X95431068Y-94321101D01*
X95610392Y-94539608D01*
X95828899Y-94718932D01*
X95961858Y-94790000D01*
X95828899Y-94861068D01*
X95610392Y-95040392D01*
X95431068Y-95258899D01*
X95297818Y-95508192D01*
X95215764Y-95778691D01*
X95188057Y-96060000D01*
X95215764Y-96341309D01*
X95297818Y-96611808D01*
X95431068Y-96861101D01*
X95610392Y-97079608D01*
X95828899Y-97258932D01*
X96078192Y-97392182D01*
X96348691Y-97474236D01*
X96559508Y-97495000D01*
X97100492Y-97495000D01*
X97311309Y-97474236D01*
X97581808Y-97392182D01*
X97831101Y-97258932D01*
X98049608Y-97079608D01*
X98228932Y-96861101D01*
X98362182Y-96611808D01*
X98444236Y-96341309D01*
X98471943Y-96060000D01*
X118048057Y-96060000D01*
X118075764Y-96341309D01*
X118157818Y-96611808D01*
X118291068Y-96861101D01*
X118470392Y-97079608D01*
X118688899Y-97258932D01*
X118935750Y-97390877D01*
X118959018Y-97467582D01*
X118975713Y-97498815D01*
X119032135Y-97604372D01*
X119130532Y-97724269D01*
X119160573Y-97748923D01*
X120941081Y-99529433D01*
X120965731Y-99559469D01*
X120995767Y-99584119D01*
X120995770Y-99584122D01*
X121085627Y-99657866D01*
X121222417Y-99730982D01*
X121370843Y-99776006D01*
X121486527Y-99787400D01*
X121486535Y-99787400D01*
X121525200Y-99791208D01*
X121563865Y-99787400D01*
X129212600Y-99787400D01*
X129212600Y-100038672D01*
X129223994Y-100154356D01*
X129269018Y-100302782D01*
X129342134Y-100439571D01*
X129440531Y-100559469D01*
X129529726Y-100632670D01*
X129456772Y-100741853D01*
X129329754Y-101048504D01*
X129265000Y-101374042D01*
X129265000Y-101705958D01*
X129329754Y-102031496D01*
X129456772Y-102338147D01*
X129641175Y-102614125D01*
X129875875Y-102848825D01*
X130151853Y-103033228D01*
X130458504Y-103160246D01*
X130784042Y-103225000D01*
X131115958Y-103225000D01*
X131441496Y-103160246D01*
X131748147Y-103033228D01*
X132024125Y-102848825D01*
X132258825Y-102614125D01*
X132443228Y-102338147D01*
X132570246Y-102031496D01*
X132635000Y-101705958D01*
X132635000Y-101374042D01*
X132570246Y-101048504D01*
X132443228Y-100741853D01*
X132340454Y-100588042D01*
X132354494Y-100580537D01*
X132451185Y-100501185D01*
X132530537Y-100404494D01*
X132589502Y-100294180D01*
X132625812Y-100174482D01*
X132638072Y-100050000D01*
X132638072Y-97950000D01*
X132625812Y-97825518D01*
X132589502Y-97705820D01*
X132530537Y-97595506D01*
X132451185Y-97498815D01*
X132354494Y-97419463D01*
X132312001Y-97396750D01*
X132732630Y-96976121D01*
X132762670Y-96951468D01*
X132836080Y-96862018D01*
X132861067Y-96831572D01*
X132934183Y-96694782D01*
X132956793Y-96620246D01*
X132979207Y-96546356D01*
X132990601Y-96430672D01*
X132990601Y-96430662D01*
X132994409Y-96391999D01*
X132990601Y-96353336D01*
X132990601Y-93751864D01*
X132994409Y-93713201D01*
X132990601Y-93674538D01*
X132990601Y-93674528D01*
X132979207Y-93558844D01*
X132934183Y-93410418D01*
X132917793Y-93379754D01*
X132861067Y-93273628D01*
X132787322Y-93183771D01*
X132762670Y-93153732D01*
X132732629Y-93129078D01*
X132638072Y-93034521D01*
X132638072Y-91410000D01*
X132625812Y-91285518D01*
X132589502Y-91165820D01*
X132530537Y-91055506D01*
X132451185Y-90958815D01*
X132354494Y-90879463D01*
X132312001Y-90856750D01*
X132732630Y-90436121D01*
X132762670Y-90411468D01*
X132837935Y-90319758D01*
X132861067Y-90291572D01*
X132934183Y-90154782D01*
X132968838Y-90040537D01*
X132979207Y-90006356D01*
X132990601Y-89890672D01*
X132990601Y-89890662D01*
X132994409Y-89851999D01*
X132990601Y-89813336D01*
X132990601Y-80671864D01*
X132994409Y-80633201D01*
X132990601Y-80594538D01*
X132990601Y-80594528D01*
X132979207Y-80478844D01*
X132934183Y-80330418D01*
X132917793Y-80299754D01*
X132861067Y-80193628D01*
X132787322Y-80103771D01*
X132762670Y-80073732D01*
X132732629Y-80049078D01*
X132638072Y-79954521D01*
X132638072Y-78330000D01*
X132625812Y-78205518D01*
X132589502Y-78085820D01*
X132530537Y-77975506D01*
X132451185Y-77878815D01*
X132354494Y-77799463D01*
X132312001Y-77776750D01*
X132732630Y-77356121D01*
X132762670Y-77331468D01*
X132830191Y-77249194D01*
X132861067Y-77211572D01*
X132934183Y-77074782D01*
X132956927Y-76999803D01*
X132979207Y-76926356D01*
X132990601Y-76810672D01*
X132990601Y-76810662D01*
X132994409Y-76771999D01*
X132990601Y-76733336D01*
X132990601Y-74131864D01*
X132994409Y-74093201D01*
X132990601Y-74054538D01*
X132990601Y-74054528D01*
X132979207Y-73938844D01*
X132934183Y-73790418D01*
X132917793Y-73759754D01*
X132861067Y-73653628D01*
X132787322Y-73563771D01*
X132762670Y-73533732D01*
X132732629Y-73509078D01*
X132638072Y-73414521D01*
X132638072Y-71790000D01*
X132625812Y-71665518D01*
X132589502Y-71545820D01*
X132530537Y-71435506D01*
X132451185Y-71338815D01*
X132354494Y-71259463D01*
X132244180Y-71200498D01*
X132124482Y-71164188D01*
X132000000Y-71151928D01*
X129900000Y-71151928D01*
X129775518Y-71164188D01*
X129655820Y-71200498D01*
X129545506Y-71259463D01*
X129448815Y-71338815D01*
X129369463Y-71435506D01*
X129310498Y-71545820D01*
X129274188Y-71665518D01*
X129261928Y-71790000D01*
X129261928Y-73890000D01*
X129274188Y-74014482D01*
X129310498Y-74134180D01*
X129369463Y-74244494D01*
X129448815Y-74341185D01*
X129545506Y-74420537D01*
X129559546Y-74428042D01*
X129456772Y-74581853D01*
X129329754Y-74888504D01*
X129265000Y-75214042D01*
X129265000Y-75545958D01*
X129329754Y-75871496D01*
X129456772Y-76178147D01*
X129641175Y-76454125D01*
X129875875Y-76688825D01*
X130151853Y-76873228D01*
X130458504Y-77000246D01*
X130784042Y-77065000D01*
X130796650Y-77065000D01*
X130420573Y-77441077D01*
X130390532Y-77465731D01*
X130310535Y-77563208D01*
X130292135Y-77585628D01*
X130235316Y-77691928D01*
X129900000Y-77691928D01*
X129775518Y-77704188D01*
X129655820Y-77740498D01*
X129545506Y-77799463D01*
X129448815Y-77878815D01*
X129369463Y-77975506D01*
X129310498Y-78085820D01*
X129274188Y-78205518D01*
X129261928Y-78330000D01*
X129261928Y-80430000D01*
X129274188Y-80554482D01*
X129310498Y-80674180D01*
X129369463Y-80784494D01*
X129448815Y-80881185D01*
X129545506Y-80960537D01*
X129559546Y-80968042D01*
X129456772Y-81121853D01*
X129329754Y-81428504D01*
X129265000Y-81754042D01*
X129265000Y-82085958D01*
X129329754Y-82411496D01*
X129456772Y-82718147D01*
X129641175Y-82994125D01*
X129875875Y-83228825D01*
X130151853Y-83413228D01*
X130458504Y-83540246D01*
X130784042Y-83605000D01*
X131115958Y-83605000D01*
X131415802Y-83545357D01*
X131415802Y-84294643D01*
X131115958Y-84235000D01*
X130784042Y-84235000D01*
X130458504Y-84299754D01*
X130151853Y-84426772D01*
X129875875Y-84611175D01*
X129641175Y-84845875D01*
X129456772Y-85121853D01*
X129329754Y-85428504D01*
X129265000Y-85754042D01*
X129265000Y-86085958D01*
X129329754Y-86411496D01*
X129456772Y-86718147D01*
X129559546Y-86871958D01*
X129545506Y-86879463D01*
X129448815Y-86958815D01*
X129369463Y-87055506D01*
X129310498Y-87165820D01*
X129274188Y-87285518D01*
X129261928Y-87410000D01*
X129261928Y-89510000D01*
X129274188Y-89634482D01*
X129310498Y-89754180D01*
X129369463Y-89864494D01*
X129448815Y-89961185D01*
X129545506Y-90040537D01*
X129655820Y-90099502D01*
X129775518Y-90135812D01*
X129900000Y-90148072D01*
X130793578Y-90148072D01*
X130420573Y-90521077D01*
X130390532Y-90545731D01*
X130310535Y-90643208D01*
X130292135Y-90665628D01*
X130235316Y-90771928D01*
X129900000Y-90771928D01*
X129775518Y-90784188D01*
X129655820Y-90820498D01*
X129545506Y-90879463D01*
X129448815Y-90958815D01*
X129369463Y-91055506D01*
X129310498Y-91165820D01*
X129274188Y-91285518D01*
X129261928Y-91410000D01*
X129261928Y-91646355D01*
X129223995Y-91771405D01*
X129212601Y-91887089D01*
X129212600Y-93498672D01*
X129223994Y-93614356D01*
X129269018Y-93762782D01*
X129342134Y-93899571D01*
X129440531Y-94019469D01*
X129529726Y-94092670D01*
X129456772Y-94201853D01*
X129329754Y-94508504D01*
X129265000Y-94834042D01*
X129265000Y-95165958D01*
X129329754Y-95491496D01*
X129456772Y-95798147D01*
X129641175Y-96074125D01*
X129875875Y-96308825D01*
X130151853Y-96493228D01*
X130458504Y-96620246D01*
X130784042Y-96685000D01*
X130796650Y-96685000D01*
X130420573Y-97061077D01*
X130390532Y-97085731D01*
X130310535Y-97183208D01*
X130292135Y-97205628D01*
X130235316Y-97311928D01*
X129900000Y-97311928D01*
X129775518Y-97324188D01*
X129655820Y-97360498D01*
X129545506Y-97419463D01*
X129448815Y-97498815D01*
X129369463Y-97595506D01*
X129310498Y-97705820D01*
X129274188Y-97825518D01*
X129261928Y-97950000D01*
X129261928Y-98212600D01*
X121851352Y-98212600D01*
X120804565Y-97165814D01*
X120909608Y-97079608D01*
X121088932Y-96861101D01*
X121222182Y-96611808D01*
X121304236Y-96341309D01*
X121331943Y-96060000D01*
X121304236Y-95778691D01*
X121222182Y-95508192D01*
X121088932Y-95258899D01*
X120909608Y-95040392D01*
X120691101Y-94861068D01*
X120561655Y-94791878D01*
X120579227Y-94784430D01*
X120812662Y-94625673D01*
X121010639Y-94424425D01*
X121165551Y-94188421D01*
X121271444Y-93926730D01*
X121281904Y-93869039D01*
X121159915Y-93647000D01*
X119817000Y-93647000D01*
X119817000Y-93667000D01*
X119563000Y-93667000D01*
X119563000Y-93647000D01*
X118220085Y-93647000D01*
X118098096Y-93869039D01*
X118108556Y-93926730D01*
X118214449Y-94188421D01*
X118369361Y-94424425D01*
X118567338Y-94625673D01*
X118800773Y-94784430D01*
X118818345Y-94791878D01*
X118688899Y-94861068D01*
X118470392Y-95040392D01*
X118291068Y-95258899D01*
X118157818Y-95508192D01*
X118075764Y-95778691D01*
X118048057Y-96060000D01*
X98471943Y-96060000D01*
X98444236Y-95778691D01*
X98362182Y-95508192D01*
X98228932Y-95258899D01*
X98049608Y-95040392D01*
X97831101Y-94861068D01*
X97698142Y-94790000D01*
X97831101Y-94718932D01*
X98049608Y-94539608D01*
X98228932Y-94321101D01*
X98276985Y-94231200D01*
X100846064Y-94231200D01*
X100880990Y-94234640D01*
X100915916Y-94231200D01*
X100915926Y-94231200D01*
X101020410Y-94220909D01*
X101154471Y-94180242D01*
X101278023Y-94114202D01*
X101386317Y-94025327D01*
X101408592Y-93998185D01*
X110068191Y-85338587D01*
X110095327Y-85316317D01*
X110184202Y-85208023D01*
X110250242Y-85084471D01*
X110290909Y-84950410D01*
X110301200Y-84845926D01*
X110301200Y-84845917D01*
X110304640Y-84810991D01*
X110301200Y-84776065D01*
X110301200Y-82024928D01*
X110304640Y-81990000D01*
X110301200Y-81955071D01*
X110301200Y-81955064D01*
X110290909Y-81850580D01*
X110277699Y-81807032D01*
X110250242Y-81716518D01*
X110184202Y-81592967D01*
X110117597Y-81511809D01*
X110117593Y-81511805D01*
X110095326Y-81484673D01*
X110068195Y-81462407D01*
X109847900Y-81242112D01*
X109847900Y-81173685D01*
X109827515Y-81071200D01*
X111338240Y-81071200D01*
X111386625Y-81119585D01*
X111546790Y-81226604D01*
X111724757Y-81300320D01*
X111913685Y-81337900D01*
X112106315Y-81337900D01*
X112295243Y-81300320D01*
X112473210Y-81226604D01*
X112633375Y-81119585D01*
X112769585Y-80983375D01*
X112876604Y-80823210D01*
X112935422Y-80681210D01*
X113958800Y-81704588D01*
X113958800Y-82028240D01*
X113910415Y-82076625D01*
X113803396Y-82236790D01*
X113729680Y-82414757D01*
X113692100Y-82603685D01*
X113692100Y-82796315D01*
X113729680Y-82985243D01*
X113803396Y-83163210D01*
X113910415Y-83323375D01*
X114046625Y-83459585D01*
X114206790Y-83566604D01*
X114384757Y-83640320D01*
X114573685Y-83677900D01*
X114766315Y-83677900D01*
X114955243Y-83640320D01*
X115133210Y-83566604D01*
X115293375Y-83459585D01*
X115429585Y-83323375D01*
X115536604Y-83163210D01*
X115610320Y-82985243D01*
X115647900Y-82796315D01*
X115647900Y-82603685D01*
X115610320Y-82414757D01*
X115536604Y-82236790D01*
X115429585Y-82076625D01*
X115381200Y-82028240D01*
X115381200Y-81444928D01*
X115384640Y-81410000D01*
X115381200Y-81375071D01*
X115381200Y-81375064D01*
X115370909Y-81270580D01*
X115330242Y-81136519D01*
X115264202Y-81012967D01*
X115250703Y-80996519D01*
X115197597Y-80931809D01*
X115197593Y-80931805D01*
X115175326Y-80904673D01*
X115148195Y-80882407D01*
X112857900Y-78592113D01*
X112857900Y-78523685D01*
X112820320Y-78334757D01*
X112746604Y-78156790D01*
X112639585Y-77996625D01*
X112503375Y-77860415D01*
X112343210Y-77753396D01*
X112165243Y-77679680D01*
X111976315Y-77642100D01*
X111783685Y-77642100D01*
X111594757Y-77679680D01*
X111416790Y-77753396D01*
X111256625Y-77860415D01*
X111120415Y-77996625D01*
X111013396Y-78156790D01*
X110939680Y-78334757D01*
X110902100Y-78523685D01*
X110902100Y-78716315D01*
X110939680Y-78905243D01*
X111013396Y-79083210D01*
X111120415Y-79243375D01*
X111256625Y-79379585D01*
X111416790Y-79486604D01*
X111503316Y-79522444D01*
X111386625Y-79600415D01*
X111338240Y-79648800D01*
X103194928Y-79648800D01*
X103160000Y-79645360D01*
X103125071Y-79648800D01*
X103125064Y-79648800D01*
X103020580Y-79659091D01*
X102886518Y-79699758D01*
X102762967Y-79765798D01*
X102681809Y-79832402D01*
X102681804Y-79832407D01*
X102654673Y-79854673D01*
X102632407Y-79881804D01*
X99865413Y-82648800D01*
X98276985Y-82648800D01*
X98228932Y-82558899D01*
X98049608Y-82340392D01*
X97831101Y-82161068D01*
X97698142Y-82090000D01*
X97831101Y-82018932D01*
X98049608Y-81839608D01*
X98228932Y-81621101D01*
X98362182Y-81371808D01*
X98444236Y-81101309D01*
X98471943Y-80820000D01*
X98444236Y-80538691D01*
X98362182Y-80268192D01*
X98228932Y-80018899D01*
X98096524Y-79857559D01*
X98184494Y-79810537D01*
X98281185Y-79731185D01*
X98360537Y-79634494D01*
X98419502Y-79524180D01*
X98455812Y-79404482D01*
X98468072Y-79280000D01*
X98468072Y-77280000D01*
X98455812Y-77155518D01*
X98419860Y-77037000D01*
X118771344Y-77037000D01*
X118688899Y-77081068D01*
X118470392Y-77260392D01*
X118291068Y-77478899D01*
X118157818Y-77728192D01*
X118075764Y-77998691D01*
X118048057Y-78280000D01*
X118075764Y-78561309D01*
X118157818Y-78831808D01*
X118291068Y-79081101D01*
X118470392Y-79299608D01*
X118688899Y-79478932D01*
X118821858Y-79550000D01*
X118688899Y-79621068D01*
X118470392Y-79800392D01*
X118291068Y-80018899D01*
X118157818Y-80268192D01*
X118075764Y-80538691D01*
X118048057Y-80820000D01*
X118075764Y-81101309D01*
X118157818Y-81371808D01*
X118291068Y-81621101D01*
X118470392Y-81839608D01*
X118688899Y-82018932D01*
X118821858Y-82090000D01*
X118688899Y-82161068D01*
X118470392Y-82340392D01*
X118291068Y-82558899D01*
X118157818Y-82808192D01*
X118075764Y-83078691D01*
X118048057Y-83360000D01*
X118075764Y-83641309D01*
X118157818Y-83911808D01*
X118291068Y-84161101D01*
X118470392Y-84379608D01*
X118688899Y-84558932D01*
X118821858Y-84630000D01*
X118688899Y-84701068D01*
X118470392Y-84880392D01*
X118291068Y-85098899D01*
X118157818Y-85348192D01*
X118075764Y-85618691D01*
X118048057Y-85900000D01*
X118075764Y-86181309D01*
X118157818Y-86451808D01*
X118291068Y-86701101D01*
X118470392Y-86919608D01*
X118688899Y-87098932D01*
X118821858Y-87170000D01*
X118688899Y-87241068D01*
X118470392Y-87420392D01*
X118291068Y-87638899D01*
X118157818Y-87888192D01*
X118075764Y-88158691D01*
X118048057Y-88440000D01*
X118075764Y-88721309D01*
X118157818Y-88991808D01*
X118291068Y-89241101D01*
X118470392Y-89459608D01*
X118688899Y-89638932D01*
X118821858Y-89710000D01*
X118688899Y-89781068D01*
X118470392Y-89960392D01*
X118291068Y-90178899D01*
X118157818Y-90428192D01*
X118075764Y-90698691D01*
X118048057Y-90980000D01*
X118075764Y-91261309D01*
X118157818Y-91531808D01*
X118291068Y-91781101D01*
X118470392Y-91999608D01*
X118688899Y-92178932D01*
X118818345Y-92248122D01*
X118800773Y-92255570D01*
X118567338Y-92414327D01*
X118369361Y-92615575D01*
X118214449Y-92851579D01*
X118108556Y-93113270D01*
X118098096Y-93170961D01*
X118220085Y-93393000D01*
X119563000Y-93393000D01*
X119563000Y-93373000D01*
X119817000Y-93373000D01*
X119817000Y-93393000D01*
X121159915Y-93393000D01*
X121281904Y-93170961D01*
X121271444Y-93113270D01*
X121165551Y-92851579D01*
X121010639Y-92615575D01*
X120812662Y-92414327D01*
X120579227Y-92255570D01*
X120561655Y-92248122D01*
X120691101Y-92178932D01*
X120909608Y-91999608D01*
X121088932Y-91781101D01*
X121222182Y-91531808D01*
X121304236Y-91261309D01*
X121331943Y-90980000D01*
X121304236Y-90698691D01*
X121222182Y-90428192D01*
X121088932Y-90178899D01*
X120909608Y-89960392D01*
X120691101Y-89781068D01*
X120558142Y-89710000D01*
X120691101Y-89638932D01*
X120909608Y-89459608D01*
X121088932Y-89241101D01*
X121222182Y-88991808D01*
X121304236Y-88721309D01*
X121331943Y-88440000D01*
X121304236Y-88158691D01*
X121222182Y-87888192D01*
X121088932Y-87638899D01*
X120909608Y-87420392D01*
X120691101Y-87241068D01*
X120558142Y-87170000D01*
X120691101Y-87098932D01*
X120909608Y-86919608D01*
X121088932Y-86701101D01*
X121222182Y-86451808D01*
X121304236Y-86181309D01*
X121331943Y-85900000D01*
X121304236Y-85618691D01*
X121222182Y-85348192D01*
X121088932Y-85098899D01*
X120909608Y-84880392D01*
X120691101Y-84701068D01*
X120558142Y-84630000D01*
X120691101Y-84558932D01*
X120909608Y-84379608D01*
X121088932Y-84161101D01*
X121222182Y-83911808D01*
X121304236Y-83641309D01*
X121331943Y-83360000D01*
X121304236Y-83078691D01*
X121222182Y-82808192D01*
X121088932Y-82558899D01*
X120909608Y-82340392D01*
X120691101Y-82161068D01*
X120558142Y-82090000D01*
X120691101Y-82018932D01*
X120909608Y-81839608D01*
X121088932Y-81621101D01*
X121222182Y-81371808D01*
X121304236Y-81101309D01*
X121331943Y-80820000D01*
X121304236Y-80538691D01*
X121222182Y-80268192D01*
X121088932Y-80018899D01*
X120909608Y-79800392D01*
X120691101Y-79621068D01*
X120558142Y-79550000D01*
X120691101Y-79478932D01*
X120909608Y-79299608D01*
X121088932Y-79081101D01*
X121222182Y-78831808D01*
X121304236Y-78561309D01*
X121331943Y-78280000D01*
X121304236Y-77998691D01*
X121222182Y-77728192D01*
X121088932Y-77478899D01*
X120909608Y-77260392D01*
X120691101Y-77081068D01*
X120608656Y-77037000D01*
X121950000Y-77037000D01*
X121974776Y-77034560D01*
X121998601Y-77027333D01*
X122020557Y-77015597D01*
X122039803Y-76999803D01*
X122055597Y-76980557D01*
X122067333Y-76958601D01*
X122074560Y-76934776D01*
X122077000Y-76910000D01*
X122077000Y-69509117D01*
X135475000Y-69509117D01*
X135475000Y-69850883D01*
X135541675Y-70186081D01*
X135672463Y-70501831D01*
X135862337Y-70785998D01*
X136104002Y-71027663D01*
X136388169Y-71217537D01*
X136703919Y-71348325D01*
X137039117Y-71415000D01*
X137380883Y-71415000D01*
X137716081Y-71348325D01*
X138031831Y-71217537D01*
X138315998Y-71027663D01*
X138557663Y-70785998D01*
X138747537Y-70501831D01*
X138878325Y-70186081D01*
X138945000Y-69850883D01*
X138945000Y-69509117D01*
X138878325Y-69173919D01*
X138747537Y-68858169D01*
X138557663Y-68574002D01*
X138315998Y-68332337D01*
X138031831Y-68142463D01*
X137716081Y-68011675D01*
X137380883Y-67945000D01*
X137039117Y-67945000D01*
X136703919Y-68011675D01*
X136388169Y-68142463D01*
X136104002Y-68332337D01*
X135862337Y-68574002D01*
X135672463Y-68858169D01*
X135541675Y-69173919D01*
X135475000Y-69509117D01*
X122077000Y-69509117D01*
X122077000Y-67340000D01*
X137177721Y-67340000D01*
X137663893Y-67387670D01*
M02*
