M48
; DRILL file {KiCad 5.1.4} date Sun 25 Aug 2019 06:27:52 PM EDT
; FORMAT={-:-/ absolute / inch / decimal}
; #@! TF.CreationDate,2019-08-25T18:27:52-04:00
; #@! TF.GenerationSoftware,Kicad,Pcbnew,5.1.4
; #@! TF.FileFunction,Plated,1,2,PTH
FMAT,2
INCH
T1C0.0130
T2C0.0394
T3C0.0433
%
G90
G05
T1
X4.2862Y-3.1996
X4.2862Y-3.239
X4.2862Y-3.2783
X4.2862Y-3.3177
X4.4047Y-3.0953
X4.4098Y-3.1638
X4.5146Y-3.2559
X4.5898Y-3.1472
T2
X3.8122Y-3.0819
X3.8122Y-3.1819
X3.8122Y-3.2819
X3.8122Y-3.3819
X3.8122Y-3.4819
X3.8122Y-3.5819
X3.8122Y-3.6819
X3.8122Y-3.7819
X4.7122Y-3.0819
X4.7122Y-3.1819
X4.7122Y-3.2819
X4.7122Y-3.3819
X4.7122Y-3.4819
X4.7122Y-3.5819
X4.7122Y-3.6819
X4.7122Y-3.7819
T3
X5.1555Y-3.3827
X5.1555Y-3.4827
X5.1555Y-3.6402
X5.1555Y-3.7402
X5.1555Y-3.8976
X5.1555Y-3.9976
X5.1555Y-3.1252
X5.1555Y-3.2252
X5.1555Y-2.8677
X5.1555Y-2.9677
T0
M30
