G04 #@! TF.GenerationSoftware,KiCad,Pcbnew,5.1.4*
G04 #@! TF.CreationDate,2019-08-25T18:27:55-04:00*
G04 #@! TF.ProjectId,oven,6f76656e-2e6b-4696-9361-645f70636258,v02*
G04 #@! TF.SameCoordinates,Original*
G04 #@! TF.FileFunction,Soldermask,Top*
G04 #@! TF.FilePolarity,Negative*
%FSLAX46Y46*%
G04 Gerber Fmt 4.6, Leading zero omitted, Abs format (unit mm)*
G04 Created by KiCad (PCBNEW 5.1.4) date 2019-08-25 18:27:55*
%MOMM*%
%LPD*%
G04 APERTURE LIST*
%ADD10O,2.101600X1.701600*%
%ADD11R,2.101600X2.101600*%
%ADD12C,2.301600*%
%ADD13R,2.201600X2.201600*%
%ADD14C,2.201600*%
%ADD15C,0.100000*%
%ADD16C,1.526600*%
%ADD17R,1.001600X0.901600*%
%ADD18R,1.551600X0.551600*%
G04 APERTURE END LIST*
D10*
X96830000Y-80820000D03*
D11*
X96830000Y-78280000D03*
D10*
X96830000Y-83360000D03*
X96830000Y-85900000D03*
X96830000Y-88440000D03*
X96830000Y-90980000D03*
X96830000Y-93520000D03*
X96830000Y-96060000D03*
X119690000Y-96060000D03*
X119690000Y-93520000D03*
X119690000Y-90980000D03*
X119690000Y-88440000D03*
X119690000Y-85900000D03*
X119690000Y-83360000D03*
X119690000Y-80820000D03*
X119690000Y-78280000D03*
D12*
X137210000Y-104680000D03*
X95210000Y-104680000D03*
X95210000Y-69680000D03*
X137210000Y-69680000D03*
D13*
X130950000Y-88460000D03*
D14*
X130950000Y-85920000D03*
D13*
X130950000Y-72840000D03*
D14*
X130950000Y-75380000D03*
D15*
G36*
X110904226Y-77645490D02*
G01*
X110930225Y-77649346D01*
X110955720Y-77655732D01*
X110980467Y-77664587D01*
X111004227Y-77675824D01*
X111026771Y-77689337D01*
X111047881Y-77704993D01*
X111067356Y-77722644D01*
X111085007Y-77742119D01*
X111100663Y-77763229D01*
X111114176Y-77785773D01*
X111125413Y-77809533D01*
X111134268Y-77834280D01*
X111140654Y-77859775D01*
X111144510Y-77885774D01*
X111145800Y-77912025D01*
X111145800Y-79227975D01*
X111144510Y-79254226D01*
X111140654Y-79280225D01*
X111134268Y-79305720D01*
X111125413Y-79330467D01*
X111114176Y-79354227D01*
X111100663Y-79376771D01*
X111085007Y-79397881D01*
X111067356Y-79417356D01*
X111047881Y-79435007D01*
X111026771Y-79450663D01*
X111004227Y-79464176D01*
X110980467Y-79475413D01*
X110955720Y-79484268D01*
X110930225Y-79490654D01*
X110904226Y-79494510D01*
X110877975Y-79495800D01*
X109887025Y-79495800D01*
X109860774Y-79494510D01*
X109834775Y-79490654D01*
X109809280Y-79484268D01*
X109784533Y-79475413D01*
X109760773Y-79464176D01*
X109738229Y-79450663D01*
X109717119Y-79435007D01*
X109697644Y-79417356D01*
X109679993Y-79397881D01*
X109664337Y-79376771D01*
X109650824Y-79354227D01*
X109639587Y-79330467D01*
X109630732Y-79305720D01*
X109624346Y-79280225D01*
X109620490Y-79254226D01*
X109619200Y-79227975D01*
X109619200Y-77912025D01*
X109620490Y-77885774D01*
X109624346Y-77859775D01*
X109630732Y-77834280D01*
X109639587Y-77809533D01*
X109650824Y-77785773D01*
X109664337Y-77763229D01*
X109679993Y-77742119D01*
X109697644Y-77722644D01*
X109717119Y-77704993D01*
X109738229Y-77689337D01*
X109760773Y-77675824D01*
X109784533Y-77664587D01*
X109809280Y-77655732D01*
X109834775Y-77649346D01*
X109860774Y-77645490D01*
X109887025Y-77644200D01*
X110877975Y-77644200D01*
X110904226Y-77645490D01*
X110904226Y-77645490D01*
G37*
D16*
X110382500Y-78570000D03*
D15*
G36*
X113879226Y-77645490D02*
G01*
X113905225Y-77649346D01*
X113930720Y-77655732D01*
X113955467Y-77664587D01*
X113979227Y-77675824D01*
X114001771Y-77689337D01*
X114022881Y-77704993D01*
X114042356Y-77722644D01*
X114060007Y-77742119D01*
X114075663Y-77763229D01*
X114089176Y-77785773D01*
X114100413Y-77809533D01*
X114109268Y-77834280D01*
X114115654Y-77859775D01*
X114119510Y-77885774D01*
X114120800Y-77912025D01*
X114120800Y-79227975D01*
X114119510Y-79254226D01*
X114115654Y-79280225D01*
X114109268Y-79305720D01*
X114100413Y-79330467D01*
X114089176Y-79354227D01*
X114075663Y-79376771D01*
X114060007Y-79397881D01*
X114042356Y-79417356D01*
X114022881Y-79435007D01*
X114001771Y-79450663D01*
X113979227Y-79464176D01*
X113955467Y-79475413D01*
X113930720Y-79484268D01*
X113905225Y-79490654D01*
X113879226Y-79494510D01*
X113852975Y-79495800D01*
X112862025Y-79495800D01*
X112835774Y-79494510D01*
X112809775Y-79490654D01*
X112784280Y-79484268D01*
X112759533Y-79475413D01*
X112735773Y-79464176D01*
X112713229Y-79450663D01*
X112692119Y-79435007D01*
X112672644Y-79417356D01*
X112654993Y-79397881D01*
X112639337Y-79376771D01*
X112625824Y-79354227D01*
X112614587Y-79330467D01*
X112605732Y-79305720D01*
X112599346Y-79280225D01*
X112595490Y-79254226D01*
X112594200Y-79227975D01*
X112594200Y-77912025D01*
X112595490Y-77885774D01*
X112599346Y-77859775D01*
X112605732Y-77834280D01*
X112614587Y-77809533D01*
X112625824Y-77785773D01*
X112639337Y-77763229D01*
X112654993Y-77742119D01*
X112672644Y-77722644D01*
X112692119Y-77704993D01*
X112713229Y-77689337D01*
X112735773Y-77675824D01*
X112759533Y-77664587D01*
X112784280Y-77655732D01*
X112809775Y-77649346D01*
X112835774Y-77645490D01*
X112862025Y-77644200D01*
X113852975Y-77644200D01*
X113879226Y-77645490D01*
X113879226Y-77645490D01*
G37*
D16*
X113357500Y-78570000D03*
D15*
G36*
X126764226Y-85070490D02*
G01*
X126790225Y-85074346D01*
X126815720Y-85080732D01*
X126840467Y-85089587D01*
X126864227Y-85100824D01*
X126886771Y-85114337D01*
X126907881Y-85129993D01*
X126927356Y-85147644D01*
X126945007Y-85167119D01*
X126960663Y-85188229D01*
X126974176Y-85210773D01*
X126985413Y-85234533D01*
X126994268Y-85259280D01*
X127000654Y-85284775D01*
X127004510Y-85310774D01*
X127005800Y-85337025D01*
X127005800Y-86327975D01*
X127004510Y-86354226D01*
X127000654Y-86380225D01*
X126994268Y-86405720D01*
X126985413Y-86430467D01*
X126974176Y-86454227D01*
X126960663Y-86476771D01*
X126945007Y-86497881D01*
X126927356Y-86517356D01*
X126907881Y-86535007D01*
X126886771Y-86550663D01*
X126864227Y-86564176D01*
X126840467Y-86575413D01*
X126815720Y-86584268D01*
X126790225Y-86590654D01*
X126764226Y-86594510D01*
X126737975Y-86595800D01*
X125422025Y-86595800D01*
X125395774Y-86594510D01*
X125369775Y-86590654D01*
X125344280Y-86584268D01*
X125319533Y-86575413D01*
X125295773Y-86564176D01*
X125273229Y-86550663D01*
X125252119Y-86535007D01*
X125232644Y-86517356D01*
X125214993Y-86497881D01*
X125199337Y-86476771D01*
X125185824Y-86454227D01*
X125174587Y-86430467D01*
X125165732Y-86405720D01*
X125159346Y-86380225D01*
X125155490Y-86354226D01*
X125154200Y-86327975D01*
X125154200Y-85337025D01*
X125155490Y-85310774D01*
X125159346Y-85284775D01*
X125165732Y-85259280D01*
X125174587Y-85234533D01*
X125185824Y-85210773D01*
X125199337Y-85188229D01*
X125214993Y-85167119D01*
X125232644Y-85147644D01*
X125252119Y-85129993D01*
X125273229Y-85114337D01*
X125295773Y-85100824D01*
X125319533Y-85089587D01*
X125344280Y-85080732D01*
X125369775Y-85074346D01*
X125395774Y-85070490D01*
X125422025Y-85069200D01*
X126737975Y-85069200D01*
X126764226Y-85070490D01*
X126764226Y-85070490D01*
G37*
D16*
X126080000Y-85832500D03*
D15*
G36*
X126764226Y-88045490D02*
G01*
X126790225Y-88049346D01*
X126815720Y-88055732D01*
X126840467Y-88064587D01*
X126864227Y-88075824D01*
X126886771Y-88089337D01*
X126907881Y-88104993D01*
X126927356Y-88122644D01*
X126945007Y-88142119D01*
X126960663Y-88163229D01*
X126974176Y-88185773D01*
X126985413Y-88209533D01*
X126994268Y-88234280D01*
X127000654Y-88259775D01*
X127004510Y-88285774D01*
X127005800Y-88312025D01*
X127005800Y-89302975D01*
X127004510Y-89329226D01*
X127000654Y-89355225D01*
X126994268Y-89380720D01*
X126985413Y-89405467D01*
X126974176Y-89429227D01*
X126960663Y-89451771D01*
X126945007Y-89472881D01*
X126927356Y-89492356D01*
X126907881Y-89510007D01*
X126886771Y-89525663D01*
X126864227Y-89539176D01*
X126840467Y-89550413D01*
X126815720Y-89559268D01*
X126790225Y-89565654D01*
X126764226Y-89569510D01*
X126737975Y-89570800D01*
X125422025Y-89570800D01*
X125395774Y-89569510D01*
X125369775Y-89565654D01*
X125344280Y-89559268D01*
X125319533Y-89550413D01*
X125295773Y-89539176D01*
X125273229Y-89525663D01*
X125252119Y-89510007D01*
X125232644Y-89492356D01*
X125214993Y-89472881D01*
X125199337Y-89451771D01*
X125185824Y-89429227D01*
X125174587Y-89405467D01*
X125165732Y-89380720D01*
X125159346Y-89355225D01*
X125155490Y-89329226D01*
X125154200Y-89302975D01*
X125154200Y-88312025D01*
X125155490Y-88285774D01*
X125159346Y-88259775D01*
X125165732Y-88234280D01*
X125174587Y-88209533D01*
X125185824Y-88185773D01*
X125199337Y-88163229D01*
X125214993Y-88142119D01*
X125232644Y-88122644D01*
X125252119Y-88104993D01*
X125273229Y-88089337D01*
X125295773Y-88075824D01*
X125319533Y-88064587D01*
X125344280Y-88055732D01*
X125369775Y-88049346D01*
X125395774Y-88045490D01*
X125422025Y-88044200D01*
X126737975Y-88044200D01*
X126764226Y-88045490D01*
X126764226Y-88045490D01*
G37*
D16*
X126080000Y-88807500D03*
D15*
G36*
X110914226Y-85485490D02*
G01*
X110940225Y-85489346D01*
X110965720Y-85495732D01*
X110990467Y-85504587D01*
X111014227Y-85515824D01*
X111036771Y-85529337D01*
X111057881Y-85544993D01*
X111077356Y-85562644D01*
X111095007Y-85582119D01*
X111110663Y-85603229D01*
X111124176Y-85625773D01*
X111135413Y-85649533D01*
X111144268Y-85674280D01*
X111150654Y-85699775D01*
X111154510Y-85725774D01*
X111155800Y-85752025D01*
X111155800Y-87067975D01*
X111154510Y-87094226D01*
X111150654Y-87120225D01*
X111144268Y-87145720D01*
X111135413Y-87170467D01*
X111124176Y-87194227D01*
X111110663Y-87216771D01*
X111095007Y-87237881D01*
X111077356Y-87257356D01*
X111057881Y-87275007D01*
X111036771Y-87290663D01*
X111014227Y-87304176D01*
X110990467Y-87315413D01*
X110965720Y-87324268D01*
X110940225Y-87330654D01*
X110914226Y-87334510D01*
X110887975Y-87335800D01*
X109897025Y-87335800D01*
X109870774Y-87334510D01*
X109844775Y-87330654D01*
X109819280Y-87324268D01*
X109794533Y-87315413D01*
X109770773Y-87304176D01*
X109748229Y-87290663D01*
X109727119Y-87275007D01*
X109707644Y-87257356D01*
X109689993Y-87237881D01*
X109674337Y-87216771D01*
X109660824Y-87194227D01*
X109649587Y-87170467D01*
X109640732Y-87145720D01*
X109634346Y-87120225D01*
X109630490Y-87094226D01*
X109629200Y-87067975D01*
X109629200Y-85752025D01*
X109630490Y-85725774D01*
X109634346Y-85699775D01*
X109640732Y-85674280D01*
X109649587Y-85649533D01*
X109660824Y-85625773D01*
X109674337Y-85603229D01*
X109689993Y-85582119D01*
X109707644Y-85562644D01*
X109727119Y-85544993D01*
X109748229Y-85529337D01*
X109770773Y-85515824D01*
X109794533Y-85504587D01*
X109819280Y-85495732D01*
X109844775Y-85489346D01*
X109870774Y-85485490D01*
X109897025Y-85484200D01*
X110887975Y-85484200D01*
X110914226Y-85485490D01*
X110914226Y-85485490D01*
G37*
D16*
X110392500Y-86410000D03*
D15*
G36*
X113889226Y-85485490D02*
G01*
X113915225Y-85489346D01*
X113940720Y-85495732D01*
X113965467Y-85504587D01*
X113989227Y-85515824D01*
X114011771Y-85529337D01*
X114032881Y-85544993D01*
X114052356Y-85562644D01*
X114070007Y-85582119D01*
X114085663Y-85603229D01*
X114099176Y-85625773D01*
X114110413Y-85649533D01*
X114119268Y-85674280D01*
X114125654Y-85699775D01*
X114129510Y-85725774D01*
X114130800Y-85752025D01*
X114130800Y-87067975D01*
X114129510Y-87094226D01*
X114125654Y-87120225D01*
X114119268Y-87145720D01*
X114110413Y-87170467D01*
X114099176Y-87194227D01*
X114085663Y-87216771D01*
X114070007Y-87237881D01*
X114052356Y-87257356D01*
X114032881Y-87275007D01*
X114011771Y-87290663D01*
X113989227Y-87304176D01*
X113965467Y-87315413D01*
X113940720Y-87324268D01*
X113915225Y-87330654D01*
X113889226Y-87334510D01*
X113862975Y-87335800D01*
X112872025Y-87335800D01*
X112845774Y-87334510D01*
X112819775Y-87330654D01*
X112794280Y-87324268D01*
X112769533Y-87315413D01*
X112745773Y-87304176D01*
X112723229Y-87290663D01*
X112702119Y-87275007D01*
X112682644Y-87257356D01*
X112664993Y-87237881D01*
X112649337Y-87216771D01*
X112635824Y-87194227D01*
X112624587Y-87170467D01*
X112615732Y-87145720D01*
X112609346Y-87120225D01*
X112605490Y-87094226D01*
X112604200Y-87067975D01*
X112604200Y-85752025D01*
X112605490Y-85725774D01*
X112609346Y-85699775D01*
X112615732Y-85674280D01*
X112624587Y-85649533D01*
X112635824Y-85625773D01*
X112649337Y-85603229D01*
X112664993Y-85582119D01*
X112682644Y-85562644D01*
X112702119Y-85544993D01*
X112723229Y-85529337D01*
X112745773Y-85515824D01*
X112769533Y-85504587D01*
X112794280Y-85495732D01*
X112819775Y-85489346D01*
X112845774Y-85485490D01*
X112872025Y-85484200D01*
X113862975Y-85484200D01*
X113889226Y-85485490D01*
X113889226Y-85485490D01*
G37*
D16*
X113367500Y-86410000D03*
D15*
G36*
X116144226Y-77650490D02*
G01*
X116170225Y-77654346D01*
X116195720Y-77660732D01*
X116220467Y-77669587D01*
X116244227Y-77680824D01*
X116266771Y-77694337D01*
X116287881Y-77709993D01*
X116307356Y-77727644D01*
X116325007Y-77747119D01*
X116340663Y-77768229D01*
X116354176Y-77790773D01*
X116365413Y-77814533D01*
X116374268Y-77839280D01*
X116380654Y-77864775D01*
X116384510Y-77890774D01*
X116385800Y-77917025D01*
X116385800Y-78907975D01*
X116384510Y-78934226D01*
X116380654Y-78960225D01*
X116374268Y-78985720D01*
X116365413Y-79010467D01*
X116354176Y-79034227D01*
X116340663Y-79056771D01*
X116325007Y-79077881D01*
X116307356Y-79097356D01*
X116287881Y-79115007D01*
X116266771Y-79130663D01*
X116244227Y-79144176D01*
X116220467Y-79155413D01*
X116195720Y-79164268D01*
X116170225Y-79170654D01*
X116144226Y-79174510D01*
X116117975Y-79175800D01*
X114802025Y-79175800D01*
X114775774Y-79174510D01*
X114749775Y-79170654D01*
X114724280Y-79164268D01*
X114699533Y-79155413D01*
X114675773Y-79144176D01*
X114653229Y-79130663D01*
X114632119Y-79115007D01*
X114612644Y-79097356D01*
X114594993Y-79077881D01*
X114579337Y-79056771D01*
X114565824Y-79034227D01*
X114554587Y-79010467D01*
X114545732Y-78985720D01*
X114539346Y-78960225D01*
X114535490Y-78934226D01*
X114534200Y-78907975D01*
X114534200Y-77917025D01*
X114535490Y-77890774D01*
X114539346Y-77864775D01*
X114545732Y-77839280D01*
X114554587Y-77814533D01*
X114565824Y-77790773D01*
X114579337Y-77768229D01*
X114594993Y-77747119D01*
X114612644Y-77727644D01*
X114632119Y-77709993D01*
X114653229Y-77694337D01*
X114675773Y-77680824D01*
X114699533Y-77669587D01*
X114724280Y-77660732D01*
X114749775Y-77654346D01*
X114775774Y-77650490D01*
X114802025Y-77649200D01*
X116117975Y-77649200D01*
X116144226Y-77650490D01*
X116144226Y-77650490D01*
G37*
D16*
X115460000Y-78412500D03*
D15*
G36*
X116144226Y-80625490D02*
G01*
X116170225Y-80629346D01*
X116195720Y-80635732D01*
X116220467Y-80644587D01*
X116244227Y-80655824D01*
X116266771Y-80669337D01*
X116287881Y-80684993D01*
X116307356Y-80702644D01*
X116325007Y-80722119D01*
X116340663Y-80743229D01*
X116354176Y-80765773D01*
X116365413Y-80789533D01*
X116374268Y-80814280D01*
X116380654Y-80839775D01*
X116384510Y-80865774D01*
X116385800Y-80892025D01*
X116385800Y-81882975D01*
X116384510Y-81909226D01*
X116380654Y-81935225D01*
X116374268Y-81960720D01*
X116365413Y-81985467D01*
X116354176Y-82009227D01*
X116340663Y-82031771D01*
X116325007Y-82052881D01*
X116307356Y-82072356D01*
X116287881Y-82090007D01*
X116266771Y-82105663D01*
X116244227Y-82119176D01*
X116220467Y-82130413D01*
X116195720Y-82139268D01*
X116170225Y-82145654D01*
X116144226Y-82149510D01*
X116117975Y-82150800D01*
X114802025Y-82150800D01*
X114775774Y-82149510D01*
X114749775Y-82145654D01*
X114724280Y-82139268D01*
X114699533Y-82130413D01*
X114675773Y-82119176D01*
X114653229Y-82105663D01*
X114632119Y-82090007D01*
X114612644Y-82072356D01*
X114594993Y-82052881D01*
X114579337Y-82031771D01*
X114565824Y-82009227D01*
X114554587Y-81985467D01*
X114545732Y-81960720D01*
X114539346Y-81935225D01*
X114535490Y-81909226D01*
X114534200Y-81882975D01*
X114534200Y-80892025D01*
X114535490Y-80865774D01*
X114539346Y-80839775D01*
X114545732Y-80814280D01*
X114554587Y-80789533D01*
X114565824Y-80765773D01*
X114579337Y-80743229D01*
X114594993Y-80722119D01*
X114612644Y-80702644D01*
X114632119Y-80684993D01*
X114653229Y-80669337D01*
X114675773Y-80655824D01*
X114699533Y-80644587D01*
X114724280Y-80635732D01*
X114749775Y-80629346D01*
X114775774Y-80625490D01*
X114802025Y-80624200D01*
X116117975Y-80624200D01*
X116144226Y-80625490D01*
X116144226Y-80625490D01*
G37*
D16*
X115460000Y-81387500D03*
D15*
G36*
X108979226Y-77645490D02*
G01*
X109005225Y-77649346D01*
X109030720Y-77655732D01*
X109055467Y-77664587D01*
X109079227Y-77675824D01*
X109101771Y-77689337D01*
X109122881Y-77704993D01*
X109142356Y-77722644D01*
X109160007Y-77742119D01*
X109175663Y-77763229D01*
X109189176Y-77785773D01*
X109200413Y-77809533D01*
X109209268Y-77834280D01*
X109215654Y-77859775D01*
X109219510Y-77885774D01*
X109220800Y-77912025D01*
X109220800Y-79227975D01*
X109219510Y-79254226D01*
X109215654Y-79280225D01*
X109209268Y-79305720D01*
X109200413Y-79330467D01*
X109189176Y-79354227D01*
X109175663Y-79376771D01*
X109160007Y-79397881D01*
X109142356Y-79417356D01*
X109122881Y-79435007D01*
X109101771Y-79450663D01*
X109079227Y-79464176D01*
X109055467Y-79475413D01*
X109030720Y-79484268D01*
X109005225Y-79490654D01*
X108979226Y-79494510D01*
X108952975Y-79495800D01*
X107962025Y-79495800D01*
X107935774Y-79494510D01*
X107909775Y-79490654D01*
X107884280Y-79484268D01*
X107859533Y-79475413D01*
X107835773Y-79464176D01*
X107813229Y-79450663D01*
X107792119Y-79435007D01*
X107772644Y-79417356D01*
X107754993Y-79397881D01*
X107739337Y-79376771D01*
X107725824Y-79354227D01*
X107714587Y-79330467D01*
X107705732Y-79305720D01*
X107699346Y-79280225D01*
X107695490Y-79254226D01*
X107694200Y-79227975D01*
X107694200Y-77912025D01*
X107695490Y-77885774D01*
X107699346Y-77859775D01*
X107705732Y-77834280D01*
X107714587Y-77809533D01*
X107725824Y-77785773D01*
X107739337Y-77763229D01*
X107754993Y-77742119D01*
X107772644Y-77722644D01*
X107792119Y-77704993D01*
X107813229Y-77689337D01*
X107835773Y-77675824D01*
X107859533Y-77664587D01*
X107884280Y-77655732D01*
X107909775Y-77649346D01*
X107935774Y-77645490D01*
X107962025Y-77644200D01*
X108952975Y-77644200D01*
X108979226Y-77645490D01*
X108979226Y-77645490D01*
G37*
D16*
X108457500Y-78570000D03*
D15*
G36*
X106004226Y-77645490D02*
G01*
X106030225Y-77649346D01*
X106055720Y-77655732D01*
X106080467Y-77664587D01*
X106104227Y-77675824D01*
X106126771Y-77689337D01*
X106147881Y-77704993D01*
X106167356Y-77722644D01*
X106185007Y-77742119D01*
X106200663Y-77763229D01*
X106214176Y-77785773D01*
X106225413Y-77809533D01*
X106234268Y-77834280D01*
X106240654Y-77859775D01*
X106244510Y-77885774D01*
X106245800Y-77912025D01*
X106245800Y-79227975D01*
X106244510Y-79254226D01*
X106240654Y-79280225D01*
X106234268Y-79305720D01*
X106225413Y-79330467D01*
X106214176Y-79354227D01*
X106200663Y-79376771D01*
X106185007Y-79397881D01*
X106167356Y-79417356D01*
X106147881Y-79435007D01*
X106126771Y-79450663D01*
X106104227Y-79464176D01*
X106080467Y-79475413D01*
X106055720Y-79484268D01*
X106030225Y-79490654D01*
X106004226Y-79494510D01*
X105977975Y-79495800D01*
X104987025Y-79495800D01*
X104960774Y-79494510D01*
X104934775Y-79490654D01*
X104909280Y-79484268D01*
X104884533Y-79475413D01*
X104860773Y-79464176D01*
X104838229Y-79450663D01*
X104817119Y-79435007D01*
X104797644Y-79417356D01*
X104779993Y-79397881D01*
X104764337Y-79376771D01*
X104750824Y-79354227D01*
X104739587Y-79330467D01*
X104730732Y-79305720D01*
X104724346Y-79280225D01*
X104720490Y-79254226D01*
X104719200Y-79227975D01*
X104719200Y-77912025D01*
X104720490Y-77885774D01*
X104724346Y-77859775D01*
X104730732Y-77834280D01*
X104739587Y-77809533D01*
X104750824Y-77785773D01*
X104764337Y-77763229D01*
X104779993Y-77742119D01*
X104797644Y-77722644D01*
X104817119Y-77704993D01*
X104838229Y-77689337D01*
X104860773Y-77675824D01*
X104884533Y-77664587D01*
X104909280Y-77655732D01*
X104934775Y-77649346D01*
X104960774Y-77645490D01*
X104987025Y-77644200D01*
X105977975Y-77644200D01*
X106004226Y-77645490D01*
X106004226Y-77645490D01*
G37*
D16*
X105482500Y-78570000D03*
D13*
X130950000Y-79380000D03*
D14*
X130950000Y-81920000D03*
X130950000Y-95000000D03*
D13*
X130950000Y-92460000D03*
D14*
X130950000Y-101540000D03*
D13*
X130950000Y-99000000D03*
D17*
X124500000Y-74680000D03*
X124500000Y-76580000D03*
X126500000Y-75630000D03*
X126500000Y-82170000D03*
X124500000Y-83120000D03*
X124500000Y-81220000D03*
X124500000Y-94290000D03*
X124500000Y-96190000D03*
X126500000Y-95240000D03*
X126500000Y-101790000D03*
X124500000Y-102740000D03*
X124500000Y-100840000D03*
D15*
G36*
X123784226Y-71325490D02*
G01*
X123810225Y-71329346D01*
X123835720Y-71335732D01*
X123860467Y-71344587D01*
X123884227Y-71355824D01*
X123906771Y-71369337D01*
X123927881Y-71384993D01*
X123947356Y-71402644D01*
X123965007Y-71422119D01*
X123980663Y-71443229D01*
X123994176Y-71465773D01*
X124005413Y-71489533D01*
X124014268Y-71514280D01*
X124020654Y-71539775D01*
X124024510Y-71565774D01*
X124025800Y-71592025D01*
X124025800Y-72907975D01*
X124024510Y-72934226D01*
X124020654Y-72960225D01*
X124014268Y-72985720D01*
X124005413Y-73010467D01*
X123994176Y-73034227D01*
X123980663Y-73056771D01*
X123965007Y-73077881D01*
X123947356Y-73097356D01*
X123927881Y-73115007D01*
X123906771Y-73130663D01*
X123884227Y-73144176D01*
X123860467Y-73155413D01*
X123835720Y-73164268D01*
X123810225Y-73170654D01*
X123784226Y-73174510D01*
X123757975Y-73175800D01*
X122767025Y-73175800D01*
X122740774Y-73174510D01*
X122714775Y-73170654D01*
X122689280Y-73164268D01*
X122664533Y-73155413D01*
X122640773Y-73144176D01*
X122618229Y-73130663D01*
X122597119Y-73115007D01*
X122577644Y-73097356D01*
X122559993Y-73077881D01*
X122544337Y-73056771D01*
X122530824Y-73034227D01*
X122519587Y-73010467D01*
X122510732Y-72985720D01*
X122504346Y-72960225D01*
X122500490Y-72934226D01*
X122499200Y-72907975D01*
X122499200Y-71592025D01*
X122500490Y-71565774D01*
X122504346Y-71539775D01*
X122510732Y-71514280D01*
X122519587Y-71489533D01*
X122530824Y-71465773D01*
X122544337Y-71443229D01*
X122559993Y-71422119D01*
X122577644Y-71402644D01*
X122597119Y-71384993D01*
X122618229Y-71369337D01*
X122640773Y-71355824D01*
X122664533Y-71344587D01*
X122689280Y-71335732D01*
X122714775Y-71329346D01*
X122740774Y-71325490D01*
X122767025Y-71324200D01*
X123757975Y-71324200D01*
X123784226Y-71325490D01*
X123784226Y-71325490D01*
G37*
D16*
X123262500Y-72250000D03*
D15*
G36*
X126759226Y-71325490D02*
G01*
X126785225Y-71329346D01*
X126810720Y-71335732D01*
X126835467Y-71344587D01*
X126859227Y-71355824D01*
X126881771Y-71369337D01*
X126902881Y-71384993D01*
X126922356Y-71402644D01*
X126940007Y-71422119D01*
X126955663Y-71443229D01*
X126969176Y-71465773D01*
X126980413Y-71489533D01*
X126989268Y-71514280D01*
X126995654Y-71539775D01*
X126999510Y-71565774D01*
X127000800Y-71592025D01*
X127000800Y-72907975D01*
X126999510Y-72934226D01*
X126995654Y-72960225D01*
X126989268Y-72985720D01*
X126980413Y-73010467D01*
X126969176Y-73034227D01*
X126955663Y-73056771D01*
X126940007Y-73077881D01*
X126922356Y-73097356D01*
X126902881Y-73115007D01*
X126881771Y-73130663D01*
X126859227Y-73144176D01*
X126835467Y-73155413D01*
X126810720Y-73164268D01*
X126785225Y-73170654D01*
X126759226Y-73174510D01*
X126732975Y-73175800D01*
X125742025Y-73175800D01*
X125715774Y-73174510D01*
X125689775Y-73170654D01*
X125664280Y-73164268D01*
X125639533Y-73155413D01*
X125615773Y-73144176D01*
X125593229Y-73130663D01*
X125572119Y-73115007D01*
X125552644Y-73097356D01*
X125534993Y-73077881D01*
X125519337Y-73056771D01*
X125505824Y-73034227D01*
X125494587Y-73010467D01*
X125485732Y-72985720D01*
X125479346Y-72960225D01*
X125475490Y-72934226D01*
X125474200Y-72907975D01*
X125474200Y-71592025D01*
X125475490Y-71565774D01*
X125479346Y-71539775D01*
X125485732Y-71514280D01*
X125494587Y-71489533D01*
X125505824Y-71465773D01*
X125519337Y-71443229D01*
X125534993Y-71422119D01*
X125552644Y-71402644D01*
X125572119Y-71384993D01*
X125593229Y-71369337D01*
X125615773Y-71355824D01*
X125639533Y-71344587D01*
X125664280Y-71335732D01*
X125689775Y-71329346D01*
X125715774Y-71325490D01*
X125742025Y-71324200D01*
X126732975Y-71324200D01*
X126759226Y-71325490D01*
X126759226Y-71325490D01*
G37*
D16*
X126237500Y-72250000D03*
D15*
G36*
X126759226Y-77865490D02*
G01*
X126785225Y-77869346D01*
X126810720Y-77875732D01*
X126835467Y-77884587D01*
X126859227Y-77895824D01*
X126881771Y-77909337D01*
X126902881Y-77924993D01*
X126922356Y-77942644D01*
X126940007Y-77962119D01*
X126955663Y-77983229D01*
X126969176Y-78005773D01*
X126980413Y-78029533D01*
X126989268Y-78054280D01*
X126995654Y-78079775D01*
X126999510Y-78105774D01*
X127000800Y-78132025D01*
X127000800Y-79447975D01*
X126999510Y-79474226D01*
X126995654Y-79500225D01*
X126989268Y-79525720D01*
X126980413Y-79550467D01*
X126969176Y-79574227D01*
X126955663Y-79596771D01*
X126940007Y-79617881D01*
X126922356Y-79637356D01*
X126902881Y-79655007D01*
X126881771Y-79670663D01*
X126859227Y-79684176D01*
X126835467Y-79695413D01*
X126810720Y-79704268D01*
X126785225Y-79710654D01*
X126759226Y-79714510D01*
X126732975Y-79715800D01*
X125742025Y-79715800D01*
X125715774Y-79714510D01*
X125689775Y-79710654D01*
X125664280Y-79704268D01*
X125639533Y-79695413D01*
X125615773Y-79684176D01*
X125593229Y-79670663D01*
X125572119Y-79655007D01*
X125552644Y-79637356D01*
X125534993Y-79617881D01*
X125519337Y-79596771D01*
X125505824Y-79574227D01*
X125494587Y-79550467D01*
X125485732Y-79525720D01*
X125479346Y-79500225D01*
X125475490Y-79474226D01*
X125474200Y-79447975D01*
X125474200Y-78132025D01*
X125475490Y-78105774D01*
X125479346Y-78079775D01*
X125485732Y-78054280D01*
X125494587Y-78029533D01*
X125505824Y-78005773D01*
X125519337Y-77983229D01*
X125534993Y-77962119D01*
X125552644Y-77942644D01*
X125572119Y-77924993D01*
X125593229Y-77909337D01*
X125615773Y-77895824D01*
X125639533Y-77884587D01*
X125664280Y-77875732D01*
X125689775Y-77869346D01*
X125715774Y-77865490D01*
X125742025Y-77864200D01*
X126732975Y-77864200D01*
X126759226Y-77865490D01*
X126759226Y-77865490D01*
G37*
D16*
X126237500Y-78790000D03*
D15*
G36*
X123784226Y-77865490D02*
G01*
X123810225Y-77869346D01*
X123835720Y-77875732D01*
X123860467Y-77884587D01*
X123884227Y-77895824D01*
X123906771Y-77909337D01*
X123927881Y-77924993D01*
X123947356Y-77942644D01*
X123965007Y-77962119D01*
X123980663Y-77983229D01*
X123994176Y-78005773D01*
X124005413Y-78029533D01*
X124014268Y-78054280D01*
X124020654Y-78079775D01*
X124024510Y-78105774D01*
X124025800Y-78132025D01*
X124025800Y-79447975D01*
X124024510Y-79474226D01*
X124020654Y-79500225D01*
X124014268Y-79525720D01*
X124005413Y-79550467D01*
X123994176Y-79574227D01*
X123980663Y-79596771D01*
X123965007Y-79617881D01*
X123947356Y-79637356D01*
X123927881Y-79655007D01*
X123906771Y-79670663D01*
X123884227Y-79684176D01*
X123860467Y-79695413D01*
X123835720Y-79704268D01*
X123810225Y-79710654D01*
X123784226Y-79714510D01*
X123757975Y-79715800D01*
X122767025Y-79715800D01*
X122740774Y-79714510D01*
X122714775Y-79710654D01*
X122689280Y-79704268D01*
X122664533Y-79695413D01*
X122640773Y-79684176D01*
X122618229Y-79670663D01*
X122597119Y-79655007D01*
X122577644Y-79637356D01*
X122559993Y-79617881D01*
X122544337Y-79596771D01*
X122530824Y-79574227D01*
X122519587Y-79550467D01*
X122510732Y-79525720D01*
X122504346Y-79500225D01*
X122500490Y-79474226D01*
X122499200Y-79447975D01*
X122499200Y-78132025D01*
X122500490Y-78105774D01*
X122504346Y-78079775D01*
X122510732Y-78054280D01*
X122519587Y-78029533D01*
X122530824Y-78005773D01*
X122544337Y-77983229D01*
X122559993Y-77962119D01*
X122577644Y-77942644D01*
X122597119Y-77924993D01*
X122618229Y-77909337D01*
X122640773Y-77895824D01*
X122664533Y-77884587D01*
X122689280Y-77875732D01*
X122714775Y-77869346D01*
X122740774Y-77865490D01*
X122767025Y-77864200D01*
X123757975Y-77864200D01*
X123784226Y-77865490D01*
X123784226Y-77865490D01*
G37*
D16*
X123262500Y-78790000D03*
D15*
G36*
X123784226Y-90945490D02*
G01*
X123810225Y-90949346D01*
X123835720Y-90955732D01*
X123860467Y-90964587D01*
X123884227Y-90975824D01*
X123906771Y-90989337D01*
X123927881Y-91004993D01*
X123947356Y-91022644D01*
X123965007Y-91042119D01*
X123980663Y-91063229D01*
X123994176Y-91085773D01*
X124005413Y-91109533D01*
X124014268Y-91134280D01*
X124020654Y-91159775D01*
X124024510Y-91185774D01*
X124025800Y-91212025D01*
X124025800Y-92527975D01*
X124024510Y-92554226D01*
X124020654Y-92580225D01*
X124014268Y-92605720D01*
X124005413Y-92630467D01*
X123994176Y-92654227D01*
X123980663Y-92676771D01*
X123965007Y-92697881D01*
X123947356Y-92717356D01*
X123927881Y-92735007D01*
X123906771Y-92750663D01*
X123884227Y-92764176D01*
X123860467Y-92775413D01*
X123835720Y-92784268D01*
X123810225Y-92790654D01*
X123784226Y-92794510D01*
X123757975Y-92795800D01*
X122767025Y-92795800D01*
X122740774Y-92794510D01*
X122714775Y-92790654D01*
X122689280Y-92784268D01*
X122664533Y-92775413D01*
X122640773Y-92764176D01*
X122618229Y-92750663D01*
X122597119Y-92735007D01*
X122577644Y-92717356D01*
X122559993Y-92697881D01*
X122544337Y-92676771D01*
X122530824Y-92654227D01*
X122519587Y-92630467D01*
X122510732Y-92605720D01*
X122504346Y-92580225D01*
X122500490Y-92554226D01*
X122499200Y-92527975D01*
X122499200Y-91212025D01*
X122500490Y-91185774D01*
X122504346Y-91159775D01*
X122510732Y-91134280D01*
X122519587Y-91109533D01*
X122530824Y-91085773D01*
X122544337Y-91063229D01*
X122559993Y-91042119D01*
X122577644Y-91022644D01*
X122597119Y-91004993D01*
X122618229Y-90989337D01*
X122640773Y-90975824D01*
X122664533Y-90964587D01*
X122689280Y-90955732D01*
X122714775Y-90949346D01*
X122740774Y-90945490D01*
X122767025Y-90944200D01*
X123757975Y-90944200D01*
X123784226Y-90945490D01*
X123784226Y-90945490D01*
G37*
D16*
X123262500Y-91870000D03*
D15*
G36*
X126759226Y-90945490D02*
G01*
X126785225Y-90949346D01*
X126810720Y-90955732D01*
X126835467Y-90964587D01*
X126859227Y-90975824D01*
X126881771Y-90989337D01*
X126902881Y-91004993D01*
X126922356Y-91022644D01*
X126940007Y-91042119D01*
X126955663Y-91063229D01*
X126969176Y-91085773D01*
X126980413Y-91109533D01*
X126989268Y-91134280D01*
X126995654Y-91159775D01*
X126999510Y-91185774D01*
X127000800Y-91212025D01*
X127000800Y-92527975D01*
X126999510Y-92554226D01*
X126995654Y-92580225D01*
X126989268Y-92605720D01*
X126980413Y-92630467D01*
X126969176Y-92654227D01*
X126955663Y-92676771D01*
X126940007Y-92697881D01*
X126922356Y-92717356D01*
X126902881Y-92735007D01*
X126881771Y-92750663D01*
X126859227Y-92764176D01*
X126835467Y-92775413D01*
X126810720Y-92784268D01*
X126785225Y-92790654D01*
X126759226Y-92794510D01*
X126732975Y-92795800D01*
X125742025Y-92795800D01*
X125715774Y-92794510D01*
X125689775Y-92790654D01*
X125664280Y-92784268D01*
X125639533Y-92775413D01*
X125615773Y-92764176D01*
X125593229Y-92750663D01*
X125572119Y-92735007D01*
X125552644Y-92717356D01*
X125534993Y-92697881D01*
X125519337Y-92676771D01*
X125505824Y-92654227D01*
X125494587Y-92630467D01*
X125485732Y-92605720D01*
X125479346Y-92580225D01*
X125475490Y-92554226D01*
X125474200Y-92527975D01*
X125474200Y-91212025D01*
X125475490Y-91185774D01*
X125479346Y-91159775D01*
X125485732Y-91134280D01*
X125494587Y-91109533D01*
X125505824Y-91085773D01*
X125519337Y-91063229D01*
X125534993Y-91042119D01*
X125552644Y-91022644D01*
X125572119Y-91004993D01*
X125593229Y-90989337D01*
X125615773Y-90975824D01*
X125639533Y-90964587D01*
X125664280Y-90955732D01*
X125689775Y-90949346D01*
X125715774Y-90945490D01*
X125742025Y-90944200D01*
X126732975Y-90944200D01*
X126759226Y-90945490D01*
X126759226Y-90945490D01*
G37*
D16*
X126237500Y-91870000D03*
D15*
G36*
X126759226Y-97495490D02*
G01*
X126785225Y-97499346D01*
X126810720Y-97505732D01*
X126835467Y-97514587D01*
X126859227Y-97525824D01*
X126881771Y-97539337D01*
X126902881Y-97554993D01*
X126922356Y-97572644D01*
X126940007Y-97592119D01*
X126955663Y-97613229D01*
X126969176Y-97635773D01*
X126980413Y-97659533D01*
X126989268Y-97684280D01*
X126995654Y-97709775D01*
X126999510Y-97735774D01*
X127000800Y-97762025D01*
X127000800Y-99077975D01*
X126999510Y-99104226D01*
X126995654Y-99130225D01*
X126989268Y-99155720D01*
X126980413Y-99180467D01*
X126969176Y-99204227D01*
X126955663Y-99226771D01*
X126940007Y-99247881D01*
X126922356Y-99267356D01*
X126902881Y-99285007D01*
X126881771Y-99300663D01*
X126859227Y-99314176D01*
X126835467Y-99325413D01*
X126810720Y-99334268D01*
X126785225Y-99340654D01*
X126759226Y-99344510D01*
X126732975Y-99345800D01*
X125742025Y-99345800D01*
X125715774Y-99344510D01*
X125689775Y-99340654D01*
X125664280Y-99334268D01*
X125639533Y-99325413D01*
X125615773Y-99314176D01*
X125593229Y-99300663D01*
X125572119Y-99285007D01*
X125552644Y-99267356D01*
X125534993Y-99247881D01*
X125519337Y-99226771D01*
X125505824Y-99204227D01*
X125494587Y-99180467D01*
X125485732Y-99155720D01*
X125479346Y-99130225D01*
X125475490Y-99104226D01*
X125474200Y-99077975D01*
X125474200Y-97762025D01*
X125475490Y-97735774D01*
X125479346Y-97709775D01*
X125485732Y-97684280D01*
X125494587Y-97659533D01*
X125505824Y-97635773D01*
X125519337Y-97613229D01*
X125534993Y-97592119D01*
X125552644Y-97572644D01*
X125572119Y-97554993D01*
X125593229Y-97539337D01*
X125615773Y-97525824D01*
X125639533Y-97514587D01*
X125664280Y-97505732D01*
X125689775Y-97499346D01*
X125715774Y-97495490D01*
X125742025Y-97494200D01*
X126732975Y-97494200D01*
X126759226Y-97495490D01*
X126759226Y-97495490D01*
G37*
D16*
X126237500Y-98420000D03*
D15*
G36*
X123784226Y-97495490D02*
G01*
X123810225Y-97499346D01*
X123835720Y-97505732D01*
X123860467Y-97514587D01*
X123884227Y-97525824D01*
X123906771Y-97539337D01*
X123927881Y-97554993D01*
X123947356Y-97572644D01*
X123965007Y-97592119D01*
X123980663Y-97613229D01*
X123994176Y-97635773D01*
X124005413Y-97659533D01*
X124014268Y-97684280D01*
X124020654Y-97709775D01*
X124024510Y-97735774D01*
X124025800Y-97762025D01*
X124025800Y-99077975D01*
X124024510Y-99104226D01*
X124020654Y-99130225D01*
X124014268Y-99155720D01*
X124005413Y-99180467D01*
X123994176Y-99204227D01*
X123980663Y-99226771D01*
X123965007Y-99247881D01*
X123947356Y-99267356D01*
X123927881Y-99285007D01*
X123906771Y-99300663D01*
X123884227Y-99314176D01*
X123860467Y-99325413D01*
X123835720Y-99334268D01*
X123810225Y-99340654D01*
X123784226Y-99344510D01*
X123757975Y-99345800D01*
X122767025Y-99345800D01*
X122740774Y-99344510D01*
X122714775Y-99340654D01*
X122689280Y-99334268D01*
X122664533Y-99325413D01*
X122640773Y-99314176D01*
X122618229Y-99300663D01*
X122597119Y-99285007D01*
X122577644Y-99267356D01*
X122559993Y-99247881D01*
X122544337Y-99226771D01*
X122530824Y-99204227D01*
X122519587Y-99180467D01*
X122510732Y-99155720D01*
X122504346Y-99130225D01*
X122500490Y-99104226D01*
X122499200Y-99077975D01*
X122499200Y-97762025D01*
X122500490Y-97735774D01*
X122504346Y-97709775D01*
X122510732Y-97684280D01*
X122519587Y-97659533D01*
X122530824Y-97635773D01*
X122544337Y-97613229D01*
X122559993Y-97592119D01*
X122577644Y-97572644D01*
X122597119Y-97554993D01*
X122618229Y-97539337D01*
X122640773Y-97525824D01*
X122664533Y-97514587D01*
X122689280Y-97505732D01*
X122714775Y-97499346D01*
X122740774Y-97495490D01*
X122767025Y-97494200D01*
X123757975Y-97494200D01*
X123784226Y-97495490D01*
X123784226Y-97495490D01*
G37*
D16*
X123262500Y-98420000D03*
D18*
X113320000Y-84440000D03*
X113320000Y-83790000D03*
X113320000Y-83140000D03*
X113320000Y-82490000D03*
X113320000Y-81840000D03*
X113320000Y-81190000D03*
X113320000Y-80540000D03*
X107420000Y-80540000D03*
X107420000Y-81190000D03*
X107420000Y-81840000D03*
X107420000Y-82490000D03*
X107420000Y-83140000D03*
X107420000Y-83790000D03*
X107420000Y-84440000D03*
M02*
